%TF.GenerationSoftware,KiCad,Pcbnew,7.0.0*%
%TF.CreationDate,2023-03-02T15:59:10-08:00*%
%TF.ProjectId,KYBERNETES-LOGIC-PD,4b594245-524e-4455-9445-532d4c4f4749,rev?*%
%TF.SameCoordinates,Original*%
%TF.FileFunction,Drillmap*%
%TF.FilePolarity,Positive*%
%FSLAX45Y45*%
G04 Gerber Fmt 4.5, Leading zero omitted, Abs format (unit mm)*
G04 Created by KiCad (PCBNEW 7.0.0) date 2023-03-02 15:59:10*
%MOMM*%
%LPD*%
G01*
G04 APERTURE LIST*
%ADD10C,0.100000*%
%ADD11C,0.200000*%
G04 APERTURE END LIST*
D10*
X11553000Y-6405000D02*
X17579000Y-6405000D01*
X17579000Y-6405000D02*
X17579000Y-10111000D01*
X17579000Y-10111000D02*
X11553000Y-10111000D01*
X11553000Y-10111000D02*
X11553000Y-6405000D01*
D11*
X11795619Y-10409476D02*
X11795619Y-10209476D01*
X11795619Y-10209476D02*
X11843238Y-10209476D01*
X11843238Y-10209476D02*
X11871809Y-10219000D01*
X11871809Y-10219000D02*
X11890857Y-10238048D01*
X11890857Y-10238048D02*
X11900381Y-10257095D01*
X11900381Y-10257095D02*
X11909905Y-10295190D01*
X11909905Y-10295190D02*
X11909905Y-10323762D01*
X11909905Y-10323762D02*
X11900381Y-10361857D01*
X11900381Y-10361857D02*
X11890857Y-10380905D01*
X11890857Y-10380905D02*
X11871809Y-10399952D01*
X11871809Y-10399952D02*
X11843238Y-10409476D01*
X11843238Y-10409476D02*
X11795619Y-10409476D01*
X11995619Y-10409476D02*
X11995619Y-10276143D01*
X11995619Y-10314238D02*
X12005143Y-10295190D01*
X12005143Y-10295190D02*
X12014667Y-10285667D01*
X12014667Y-10285667D02*
X12033714Y-10276143D01*
X12033714Y-10276143D02*
X12052762Y-10276143D01*
X12119428Y-10409476D02*
X12119428Y-10276143D01*
X12119428Y-10209476D02*
X12109905Y-10219000D01*
X12109905Y-10219000D02*
X12119428Y-10228524D01*
X12119428Y-10228524D02*
X12128952Y-10219000D01*
X12128952Y-10219000D02*
X12119428Y-10209476D01*
X12119428Y-10209476D02*
X12119428Y-10228524D01*
X12243238Y-10409476D02*
X12224190Y-10399952D01*
X12224190Y-10399952D02*
X12214667Y-10380905D01*
X12214667Y-10380905D02*
X12214667Y-10209476D01*
X12348000Y-10409476D02*
X12328952Y-10399952D01*
X12328952Y-10399952D02*
X12319428Y-10380905D01*
X12319428Y-10380905D02*
X12319428Y-10209476D01*
X12544190Y-10409476D02*
X12544190Y-10209476D01*
X12544190Y-10209476D02*
X12610857Y-10352333D01*
X12610857Y-10352333D02*
X12677524Y-10209476D01*
X12677524Y-10209476D02*
X12677524Y-10409476D01*
X12858476Y-10409476D02*
X12858476Y-10304714D01*
X12858476Y-10304714D02*
X12848952Y-10285667D01*
X12848952Y-10285667D02*
X12829905Y-10276143D01*
X12829905Y-10276143D02*
X12791809Y-10276143D01*
X12791809Y-10276143D02*
X12772762Y-10285667D01*
X12858476Y-10399952D02*
X12839428Y-10409476D01*
X12839428Y-10409476D02*
X12791809Y-10409476D01*
X12791809Y-10409476D02*
X12772762Y-10399952D01*
X12772762Y-10399952D02*
X12763238Y-10380905D01*
X12763238Y-10380905D02*
X12763238Y-10361857D01*
X12763238Y-10361857D02*
X12772762Y-10342810D01*
X12772762Y-10342810D02*
X12791809Y-10333286D01*
X12791809Y-10333286D02*
X12839428Y-10333286D01*
X12839428Y-10333286D02*
X12858476Y-10323762D01*
X12953714Y-10276143D02*
X12953714Y-10476143D01*
X12953714Y-10285667D02*
X12972762Y-10276143D01*
X12972762Y-10276143D02*
X13010857Y-10276143D01*
X13010857Y-10276143D02*
X13029905Y-10285667D01*
X13029905Y-10285667D02*
X13039428Y-10295190D01*
X13039428Y-10295190D02*
X13048952Y-10314238D01*
X13048952Y-10314238D02*
X13048952Y-10371381D01*
X13048952Y-10371381D02*
X13039428Y-10390429D01*
X13039428Y-10390429D02*
X13029905Y-10399952D01*
X13029905Y-10399952D02*
X13010857Y-10409476D01*
X13010857Y-10409476D02*
X12972762Y-10409476D01*
X12972762Y-10409476D02*
X12953714Y-10399952D01*
X13134667Y-10390429D02*
X13144190Y-10399952D01*
X13144190Y-10399952D02*
X13134667Y-10409476D01*
X13134667Y-10409476D02*
X13125143Y-10399952D01*
X13125143Y-10399952D02*
X13134667Y-10390429D01*
X13134667Y-10390429D02*
X13134667Y-10409476D01*
X13134667Y-10285667D02*
X13144190Y-10295190D01*
X13144190Y-10295190D02*
X13134667Y-10304714D01*
X13134667Y-10304714D02*
X13125143Y-10295190D01*
X13125143Y-10295190D02*
X13134667Y-10285667D01*
X13134667Y-10285667D02*
X13134667Y-10304714D01*
M02*
