G04 #@! TF.GenerationSoftware,KiCad,Pcbnew,7.0.0*
G04 #@! TF.CreationDate,2023-03-02T15:58:58-08:00*
G04 #@! TF.ProjectId,KYBERNETES-LOGIC-PD,4b594245-524e-4455-9445-532d4c4f4749,rev?*
G04 #@! TF.SameCoordinates,Original*
G04 #@! TF.FileFunction,Legend,Top*
G04 #@! TF.FilePolarity,Positive*
%FSLAX46Y46*%
G04 Gerber Fmt 4.6, Leading zero omitted, Abs format (unit mm)*
G04 Created by KiCad (PCBNEW 7.0.0) date 2023-03-02 15:58:58*
%MOMM*%
%LPD*%
G01*
G04 APERTURE LIST*
G04 Aperture macros list*
%AMRoundRect*
0 Rectangle with rounded corners*
0 $1 Rounding radius*
0 $2 $3 $4 $5 $6 $7 $8 $9 X,Y pos of 4 corners*
0 Add a 4 corners polygon primitive as box body*
4,1,4,$2,$3,$4,$5,$6,$7,$8,$9,$2,$3,0*
0 Add four circle primitives for the rounded corners*
1,1,$1+$1,$2,$3*
1,1,$1+$1,$4,$5*
1,1,$1+$1,$6,$7*
1,1,$1+$1,$8,$9*
0 Add four rect primitives between the rounded corners*
20,1,$1+$1,$2,$3,$4,$5,0*
20,1,$1+$1,$4,$5,$6,$7,0*
20,1,$1+$1,$6,$7,$8,$9,0*
20,1,$1+$1,$8,$9,$2,$3,0*%
G04 Aperture macros list end*
%ADD10C,0.200000*%
%ADD11C,0.150000*%
%ADD12C,0.300000*%
%ADD13C,0.120000*%
%ADD14R,5.600000X5.600000*%
%ADD15R,0.700000X1.200000*%
%ADD16R,0.760000X1.200000*%
%ADD17R,0.800000X1.200000*%
%ADD18R,1.800000X1.350000*%
%ADD19R,1.800000X1.500000*%
%ADD20RoundRect,0.237500X0.237500X-0.250000X0.237500X0.250000X-0.237500X0.250000X-0.237500X-0.250000X0*%
%ADD21C,6.000000*%
%ADD22RoundRect,1.500000X1.500000X1.500000X-1.500000X1.500000X-1.500000X-1.500000X1.500000X-1.500000X0*%
%ADD23RoundRect,0.237500X-0.300000X-0.237500X0.300000X-0.237500X0.300000X0.237500X-0.300000X0.237500X0*%
%ADD24RoundRect,0.237500X-0.237500X0.250000X-0.237500X-0.250000X0.237500X-0.250000X0.237500X0.250000X0*%
%ADD25RoundRect,0.100000X0.100000X-0.637500X0.100000X0.637500X-0.100000X0.637500X-0.100000X-0.637500X0*%
%ADD26RoundRect,0.237500X-0.237500X0.300000X-0.237500X-0.300000X0.237500X-0.300000X0.237500X0.300000X0*%
%ADD27O,1.700000X1.700000*%
%ADD28R,1.700000X1.700000*%
%ADD29RoundRect,0.250000X0.400000X0.625000X-0.400000X0.625000X-0.400000X-0.625000X0.400000X-0.625000X0*%
%ADD30RoundRect,0.237500X0.300000X0.237500X-0.300000X0.237500X-0.300000X-0.237500X0.300000X-0.237500X0*%
%ADD31RoundRect,0.150000X-0.150000X0.825000X-0.150000X-0.825000X0.150000X-0.825000X0.150000X0.825000X0*%
%ADD32RoundRect,0.150000X0.512500X0.150000X-0.512500X0.150000X-0.512500X-0.150000X0.512500X-0.150000X0*%
%ADD33RoundRect,0.250000X0.625000X-0.350000X0.625000X0.350000X-0.625000X0.350000X-0.625000X-0.350000X0*%
%ADD34O,1.750000X1.200000*%
%ADD35RoundRect,0.250000X-0.625000X0.350000X-0.625000X-0.350000X0.625000X-0.350000X0.625000X0.350000X0*%
%ADD36RoundRect,0.237500X0.250000X0.237500X-0.250000X0.237500X-0.250000X-0.237500X0.250000X-0.237500X0*%
%ADD37RoundRect,0.150000X-0.150000X0.512500X-0.150000X-0.512500X0.150000X-0.512500X0.150000X0.512500X0*%
G04 APERTURE END LIST*
D10*
X141180475Y-73522380D02*
X141180475Y-72522380D01*
X141751903Y-73522380D02*
X141323332Y-72950952D01*
X141751903Y-72522380D02*
X141180475Y-73093809D01*
X142085237Y-72855714D02*
X142323332Y-73522380D01*
X142561427Y-72855714D02*
X142323332Y-73522380D01*
X142323332Y-73522380D02*
X142228094Y-73760476D01*
X142228094Y-73760476D02*
X142180475Y-73808095D01*
X142180475Y-73808095D02*
X142085237Y-73855714D01*
X142942380Y-73522380D02*
X142942380Y-72522380D01*
X142942380Y-72903333D02*
X143037618Y-72855714D01*
X143037618Y-72855714D02*
X143228094Y-72855714D01*
X143228094Y-72855714D02*
X143323332Y-72903333D01*
X143323332Y-72903333D02*
X143370951Y-72950952D01*
X143370951Y-72950952D02*
X143418570Y-73046190D01*
X143418570Y-73046190D02*
X143418570Y-73331904D01*
X143418570Y-73331904D02*
X143370951Y-73427142D01*
X143370951Y-73427142D02*
X143323332Y-73474761D01*
X143323332Y-73474761D02*
X143228094Y-73522380D01*
X143228094Y-73522380D02*
X143037618Y-73522380D01*
X143037618Y-73522380D02*
X142942380Y-73474761D01*
X144228094Y-73474761D02*
X144132856Y-73522380D01*
X144132856Y-73522380D02*
X143942380Y-73522380D01*
X143942380Y-73522380D02*
X143847142Y-73474761D01*
X143847142Y-73474761D02*
X143799523Y-73379523D01*
X143799523Y-73379523D02*
X143799523Y-72998571D01*
X143799523Y-72998571D02*
X143847142Y-72903333D01*
X143847142Y-72903333D02*
X143942380Y-72855714D01*
X143942380Y-72855714D02*
X144132856Y-72855714D01*
X144132856Y-72855714D02*
X144228094Y-72903333D01*
X144228094Y-72903333D02*
X144275713Y-72998571D01*
X144275713Y-72998571D02*
X144275713Y-73093809D01*
X144275713Y-73093809D02*
X143799523Y-73189047D01*
X144704285Y-73522380D02*
X144704285Y-72855714D01*
X144704285Y-73046190D02*
X144751904Y-72950952D01*
X144751904Y-72950952D02*
X144799523Y-72903333D01*
X144799523Y-72903333D02*
X144894761Y-72855714D01*
X144894761Y-72855714D02*
X144989999Y-72855714D01*
X145323333Y-72855714D02*
X145323333Y-73522380D01*
X145323333Y-72950952D02*
X145370952Y-72903333D01*
X145370952Y-72903333D02*
X145466190Y-72855714D01*
X145466190Y-72855714D02*
X145609047Y-72855714D01*
X145609047Y-72855714D02*
X145704285Y-72903333D01*
X145704285Y-72903333D02*
X145751904Y-72998571D01*
X145751904Y-72998571D02*
X145751904Y-73522380D01*
X146609047Y-73474761D02*
X146513809Y-73522380D01*
X146513809Y-73522380D02*
X146323333Y-73522380D01*
X146323333Y-73522380D02*
X146228095Y-73474761D01*
X146228095Y-73474761D02*
X146180476Y-73379523D01*
X146180476Y-73379523D02*
X146180476Y-72998571D01*
X146180476Y-72998571D02*
X146228095Y-72903333D01*
X146228095Y-72903333D02*
X146323333Y-72855714D01*
X146323333Y-72855714D02*
X146513809Y-72855714D01*
X146513809Y-72855714D02*
X146609047Y-72903333D01*
X146609047Y-72903333D02*
X146656666Y-72998571D01*
X146656666Y-72998571D02*
X146656666Y-73093809D01*
X146656666Y-73093809D02*
X146180476Y-73189047D01*
X146942381Y-72855714D02*
X147323333Y-72855714D01*
X147085238Y-72522380D02*
X147085238Y-73379523D01*
X147085238Y-73379523D02*
X147132857Y-73474761D01*
X147132857Y-73474761D02*
X147228095Y-73522380D01*
X147228095Y-73522380D02*
X147323333Y-73522380D01*
X148037619Y-73474761D02*
X147942381Y-73522380D01*
X147942381Y-73522380D02*
X147751905Y-73522380D01*
X147751905Y-73522380D02*
X147656667Y-73474761D01*
X147656667Y-73474761D02*
X147609048Y-73379523D01*
X147609048Y-73379523D02*
X147609048Y-72998571D01*
X147609048Y-72998571D02*
X147656667Y-72903333D01*
X147656667Y-72903333D02*
X147751905Y-72855714D01*
X147751905Y-72855714D02*
X147942381Y-72855714D01*
X147942381Y-72855714D02*
X148037619Y-72903333D01*
X148037619Y-72903333D02*
X148085238Y-72998571D01*
X148085238Y-72998571D02*
X148085238Y-73093809D01*
X148085238Y-73093809D02*
X147609048Y-73189047D01*
X148466191Y-73474761D02*
X148561429Y-73522380D01*
X148561429Y-73522380D02*
X148751905Y-73522380D01*
X148751905Y-73522380D02*
X148847143Y-73474761D01*
X148847143Y-73474761D02*
X148894762Y-73379523D01*
X148894762Y-73379523D02*
X148894762Y-73331904D01*
X148894762Y-73331904D02*
X148847143Y-73236666D01*
X148847143Y-73236666D02*
X148751905Y-73189047D01*
X148751905Y-73189047D02*
X148609048Y-73189047D01*
X148609048Y-73189047D02*
X148513810Y-73141428D01*
X148513810Y-73141428D02*
X148466191Y-73046190D01*
X148466191Y-73046190D02*
X148466191Y-72998571D01*
X148466191Y-72998571D02*
X148513810Y-72903333D01*
X148513810Y-72903333D02*
X148609048Y-72855714D01*
X148609048Y-72855714D02*
X148751905Y-72855714D01*
X148751905Y-72855714D02*
X148847143Y-72903333D01*
X149875715Y-72617619D02*
X149923334Y-72570000D01*
X149923334Y-72570000D02*
X150018572Y-72522380D01*
X150018572Y-72522380D02*
X150256667Y-72522380D01*
X150256667Y-72522380D02*
X150351905Y-72570000D01*
X150351905Y-72570000D02*
X150399524Y-72617619D01*
X150399524Y-72617619D02*
X150447143Y-72712857D01*
X150447143Y-72712857D02*
X150447143Y-72808095D01*
X150447143Y-72808095D02*
X150399524Y-72950952D01*
X150399524Y-72950952D02*
X149828096Y-73522380D01*
X149828096Y-73522380D02*
X150447143Y-73522380D01*
X139204285Y-75142380D02*
X139204285Y-74142380D01*
X139204285Y-74142380D02*
X139585237Y-74142380D01*
X139585237Y-74142380D02*
X139680475Y-74190000D01*
X139680475Y-74190000D02*
X139728094Y-74237619D01*
X139728094Y-74237619D02*
X139775713Y-74332857D01*
X139775713Y-74332857D02*
X139775713Y-74475714D01*
X139775713Y-74475714D02*
X139728094Y-74570952D01*
X139728094Y-74570952D02*
X139680475Y-74618571D01*
X139680475Y-74618571D02*
X139585237Y-74666190D01*
X139585237Y-74666190D02*
X139204285Y-74666190D01*
X140347142Y-75142380D02*
X140251904Y-75094761D01*
X140251904Y-75094761D02*
X140204285Y-75047142D01*
X140204285Y-75047142D02*
X140156666Y-74951904D01*
X140156666Y-74951904D02*
X140156666Y-74666190D01*
X140156666Y-74666190D02*
X140204285Y-74570952D01*
X140204285Y-74570952D02*
X140251904Y-74523333D01*
X140251904Y-74523333D02*
X140347142Y-74475714D01*
X140347142Y-74475714D02*
X140489999Y-74475714D01*
X140489999Y-74475714D02*
X140585237Y-74523333D01*
X140585237Y-74523333D02*
X140632856Y-74570952D01*
X140632856Y-74570952D02*
X140680475Y-74666190D01*
X140680475Y-74666190D02*
X140680475Y-74951904D01*
X140680475Y-74951904D02*
X140632856Y-75047142D01*
X140632856Y-75047142D02*
X140585237Y-75094761D01*
X140585237Y-75094761D02*
X140489999Y-75142380D01*
X140489999Y-75142380D02*
X140347142Y-75142380D01*
X141013809Y-74475714D02*
X141204285Y-75142380D01*
X141204285Y-75142380D02*
X141394761Y-74666190D01*
X141394761Y-74666190D02*
X141585237Y-75142380D01*
X141585237Y-75142380D02*
X141775713Y-74475714D01*
X142537618Y-75094761D02*
X142442380Y-75142380D01*
X142442380Y-75142380D02*
X142251904Y-75142380D01*
X142251904Y-75142380D02*
X142156666Y-75094761D01*
X142156666Y-75094761D02*
X142109047Y-74999523D01*
X142109047Y-74999523D02*
X142109047Y-74618571D01*
X142109047Y-74618571D02*
X142156666Y-74523333D01*
X142156666Y-74523333D02*
X142251904Y-74475714D01*
X142251904Y-74475714D02*
X142442380Y-74475714D01*
X142442380Y-74475714D02*
X142537618Y-74523333D01*
X142537618Y-74523333D02*
X142585237Y-74618571D01*
X142585237Y-74618571D02*
X142585237Y-74713809D01*
X142585237Y-74713809D02*
X142109047Y-74809047D01*
X143013809Y-75142380D02*
X143013809Y-74475714D01*
X143013809Y-74666190D02*
X143061428Y-74570952D01*
X143061428Y-74570952D02*
X143109047Y-74523333D01*
X143109047Y-74523333D02*
X143204285Y-74475714D01*
X143204285Y-74475714D02*
X143299523Y-74475714D01*
X144232857Y-75142380D02*
X144232857Y-74142380D01*
X144232857Y-74142380D02*
X144470952Y-74142380D01*
X144470952Y-74142380D02*
X144613809Y-74190000D01*
X144613809Y-74190000D02*
X144709047Y-74285238D01*
X144709047Y-74285238D02*
X144756666Y-74380476D01*
X144756666Y-74380476D02*
X144804285Y-74570952D01*
X144804285Y-74570952D02*
X144804285Y-74713809D01*
X144804285Y-74713809D02*
X144756666Y-74904285D01*
X144756666Y-74904285D02*
X144709047Y-74999523D01*
X144709047Y-74999523D02*
X144613809Y-75094761D01*
X144613809Y-75094761D02*
X144470952Y-75142380D01*
X144470952Y-75142380D02*
X144232857Y-75142380D01*
X145232857Y-75142380D02*
X145232857Y-74475714D01*
X145232857Y-74142380D02*
X145185238Y-74190000D01*
X145185238Y-74190000D02*
X145232857Y-74237619D01*
X145232857Y-74237619D02*
X145280476Y-74190000D01*
X145280476Y-74190000D02*
X145232857Y-74142380D01*
X145232857Y-74142380D02*
X145232857Y-74237619D01*
X145661428Y-75094761D02*
X145756666Y-75142380D01*
X145756666Y-75142380D02*
X145947142Y-75142380D01*
X145947142Y-75142380D02*
X146042380Y-75094761D01*
X146042380Y-75094761D02*
X146089999Y-74999523D01*
X146089999Y-74999523D02*
X146089999Y-74951904D01*
X146089999Y-74951904D02*
X146042380Y-74856666D01*
X146042380Y-74856666D02*
X145947142Y-74809047D01*
X145947142Y-74809047D02*
X145804285Y-74809047D01*
X145804285Y-74809047D02*
X145709047Y-74761428D01*
X145709047Y-74761428D02*
X145661428Y-74666190D01*
X145661428Y-74666190D02*
X145661428Y-74618571D01*
X145661428Y-74618571D02*
X145709047Y-74523333D01*
X145709047Y-74523333D02*
X145804285Y-74475714D01*
X145804285Y-74475714D02*
X145947142Y-74475714D01*
X145947142Y-74475714D02*
X146042380Y-74523333D01*
X146375714Y-74475714D02*
X146756666Y-74475714D01*
X146518571Y-74142380D02*
X146518571Y-74999523D01*
X146518571Y-74999523D02*
X146566190Y-75094761D01*
X146566190Y-75094761D02*
X146661428Y-75142380D01*
X146661428Y-75142380D02*
X146756666Y-75142380D01*
X147090000Y-75142380D02*
X147090000Y-74475714D01*
X147090000Y-74666190D02*
X147137619Y-74570952D01*
X147137619Y-74570952D02*
X147185238Y-74523333D01*
X147185238Y-74523333D02*
X147280476Y-74475714D01*
X147280476Y-74475714D02*
X147375714Y-74475714D01*
X147709048Y-75142380D02*
X147709048Y-74475714D01*
X147709048Y-74142380D02*
X147661429Y-74190000D01*
X147661429Y-74190000D02*
X147709048Y-74237619D01*
X147709048Y-74237619D02*
X147756667Y-74190000D01*
X147756667Y-74190000D02*
X147709048Y-74142380D01*
X147709048Y-74142380D02*
X147709048Y-74237619D01*
X148185238Y-75142380D02*
X148185238Y-74142380D01*
X148185238Y-74523333D02*
X148280476Y-74475714D01*
X148280476Y-74475714D02*
X148470952Y-74475714D01*
X148470952Y-74475714D02*
X148566190Y-74523333D01*
X148566190Y-74523333D02*
X148613809Y-74570952D01*
X148613809Y-74570952D02*
X148661428Y-74666190D01*
X148661428Y-74666190D02*
X148661428Y-74951904D01*
X148661428Y-74951904D02*
X148613809Y-75047142D01*
X148613809Y-75047142D02*
X148566190Y-75094761D01*
X148566190Y-75094761D02*
X148470952Y-75142380D01*
X148470952Y-75142380D02*
X148280476Y-75142380D01*
X148280476Y-75142380D02*
X148185238Y-75094761D01*
X149518571Y-74475714D02*
X149518571Y-75142380D01*
X149090000Y-74475714D02*
X149090000Y-74999523D01*
X149090000Y-74999523D02*
X149137619Y-75094761D01*
X149137619Y-75094761D02*
X149232857Y-75142380D01*
X149232857Y-75142380D02*
X149375714Y-75142380D01*
X149375714Y-75142380D02*
X149470952Y-75094761D01*
X149470952Y-75094761D02*
X149518571Y-75047142D01*
X149851905Y-74475714D02*
X150232857Y-74475714D01*
X149994762Y-74142380D02*
X149994762Y-74999523D01*
X149994762Y-74999523D02*
X150042381Y-75094761D01*
X150042381Y-75094761D02*
X150137619Y-75142380D01*
X150137619Y-75142380D02*
X150232857Y-75142380D01*
X150566191Y-75142380D02*
X150566191Y-74475714D01*
X150566191Y-74142380D02*
X150518572Y-74190000D01*
X150518572Y-74190000D02*
X150566191Y-74237619D01*
X150566191Y-74237619D02*
X150613810Y-74190000D01*
X150613810Y-74190000D02*
X150566191Y-74142380D01*
X150566191Y-74142380D02*
X150566191Y-74237619D01*
X151185238Y-75142380D02*
X151090000Y-75094761D01*
X151090000Y-75094761D02*
X151042381Y-75047142D01*
X151042381Y-75047142D02*
X150994762Y-74951904D01*
X150994762Y-74951904D02*
X150994762Y-74666190D01*
X150994762Y-74666190D02*
X151042381Y-74570952D01*
X151042381Y-74570952D02*
X151090000Y-74523333D01*
X151090000Y-74523333D02*
X151185238Y-74475714D01*
X151185238Y-74475714D02*
X151328095Y-74475714D01*
X151328095Y-74475714D02*
X151423333Y-74523333D01*
X151423333Y-74523333D02*
X151470952Y-74570952D01*
X151470952Y-74570952D02*
X151518571Y-74666190D01*
X151518571Y-74666190D02*
X151518571Y-74951904D01*
X151518571Y-74951904D02*
X151470952Y-75047142D01*
X151470952Y-75047142D02*
X151423333Y-75094761D01*
X151423333Y-75094761D02*
X151328095Y-75142380D01*
X151328095Y-75142380D02*
X151185238Y-75142380D01*
X151947143Y-74475714D02*
X151947143Y-75142380D01*
X151947143Y-74570952D02*
X151994762Y-74523333D01*
X151994762Y-74523333D02*
X152090000Y-74475714D01*
X152090000Y-74475714D02*
X152232857Y-74475714D01*
X152232857Y-74475714D02*
X152328095Y-74523333D01*
X152328095Y-74523333D02*
X152375714Y-74618571D01*
X152375714Y-74618571D02*
X152375714Y-75142380D01*
D11*
X155291428Y-98379904D02*
X154910476Y-98379904D01*
X154910476Y-98379904D02*
X154910476Y-97579904D01*
X155672380Y-98379904D02*
X155596190Y-98341809D01*
X155596190Y-98341809D02*
X155558095Y-98303714D01*
X155558095Y-98303714D02*
X155519999Y-98227523D01*
X155519999Y-98227523D02*
X155519999Y-97998952D01*
X155519999Y-97998952D02*
X155558095Y-97922761D01*
X155558095Y-97922761D02*
X155596190Y-97884666D01*
X155596190Y-97884666D02*
X155672380Y-97846571D01*
X155672380Y-97846571D02*
X155786666Y-97846571D01*
X155786666Y-97846571D02*
X155862857Y-97884666D01*
X155862857Y-97884666D02*
X155900952Y-97922761D01*
X155900952Y-97922761D02*
X155939047Y-97998952D01*
X155939047Y-97998952D02*
X155939047Y-98227523D01*
X155939047Y-98227523D02*
X155900952Y-98303714D01*
X155900952Y-98303714D02*
X155862857Y-98341809D01*
X155862857Y-98341809D02*
X155786666Y-98379904D01*
X155786666Y-98379904D02*
X155672380Y-98379904D01*
X156205714Y-97846571D02*
X156358095Y-98379904D01*
X156358095Y-98379904D02*
X156510476Y-97998952D01*
X156510476Y-97998952D02*
X156662857Y-98379904D01*
X156662857Y-98379904D02*
X156815238Y-97846571D01*
X157866666Y-97960857D02*
X157980952Y-97998952D01*
X157980952Y-97998952D02*
X158019047Y-98037047D01*
X158019047Y-98037047D02*
X158057143Y-98113238D01*
X158057143Y-98113238D02*
X158057143Y-98227523D01*
X158057143Y-98227523D02*
X158019047Y-98303714D01*
X158019047Y-98303714D02*
X157980952Y-98341809D01*
X157980952Y-98341809D02*
X157904762Y-98379904D01*
X157904762Y-98379904D02*
X157600000Y-98379904D01*
X157600000Y-98379904D02*
X157600000Y-97579904D01*
X157600000Y-97579904D02*
X157866666Y-97579904D01*
X157866666Y-97579904D02*
X157942857Y-97618000D01*
X157942857Y-97618000D02*
X157980952Y-97656095D01*
X157980952Y-97656095D02*
X158019047Y-97732285D01*
X158019047Y-97732285D02*
X158019047Y-97808476D01*
X158019047Y-97808476D02*
X157980952Y-97884666D01*
X157980952Y-97884666D02*
X157942857Y-97922761D01*
X157942857Y-97922761D02*
X157866666Y-97960857D01*
X157866666Y-97960857D02*
X157600000Y-97960857D01*
X158742857Y-98379904D02*
X158742857Y-97960857D01*
X158742857Y-97960857D02*
X158704762Y-97884666D01*
X158704762Y-97884666D02*
X158628571Y-97846571D01*
X158628571Y-97846571D02*
X158476190Y-97846571D01*
X158476190Y-97846571D02*
X158400000Y-97884666D01*
X158742857Y-98341809D02*
X158666666Y-98379904D01*
X158666666Y-98379904D02*
X158476190Y-98379904D01*
X158476190Y-98379904D02*
X158400000Y-98341809D01*
X158400000Y-98341809D02*
X158361904Y-98265619D01*
X158361904Y-98265619D02*
X158361904Y-98189428D01*
X158361904Y-98189428D02*
X158400000Y-98113238D01*
X158400000Y-98113238D02*
X158476190Y-98075142D01*
X158476190Y-98075142D02*
X158666666Y-98075142D01*
X158666666Y-98075142D02*
X158742857Y-98037047D01*
X159009524Y-97846571D02*
X159314286Y-97846571D01*
X159123810Y-97579904D02*
X159123810Y-98265619D01*
X159123810Y-98265619D02*
X159161905Y-98341809D01*
X159161905Y-98341809D02*
X159238095Y-98379904D01*
X159238095Y-98379904D02*
X159314286Y-98379904D01*
X159466667Y-97846571D02*
X159771429Y-97846571D01*
X159580953Y-97579904D02*
X159580953Y-98265619D01*
X159580953Y-98265619D02*
X159619048Y-98341809D01*
X159619048Y-98341809D02*
X159695238Y-98379904D01*
X159695238Y-98379904D02*
X159771429Y-98379904D01*
X160342858Y-98341809D02*
X160266667Y-98379904D01*
X160266667Y-98379904D02*
X160114286Y-98379904D01*
X160114286Y-98379904D02*
X160038096Y-98341809D01*
X160038096Y-98341809D02*
X160000000Y-98265619D01*
X160000000Y-98265619D02*
X160000000Y-97960857D01*
X160000000Y-97960857D02*
X160038096Y-97884666D01*
X160038096Y-97884666D02*
X160114286Y-97846571D01*
X160114286Y-97846571D02*
X160266667Y-97846571D01*
X160266667Y-97846571D02*
X160342858Y-97884666D01*
X160342858Y-97884666D02*
X160380953Y-97960857D01*
X160380953Y-97960857D02*
X160380953Y-98037047D01*
X160380953Y-98037047D02*
X160000000Y-98113238D01*
X160723810Y-98379904D02*
X160723810Y-97846571D01*
X160723810Y-97998952D02*
X160761905Y-97922761D01*
X160761905Y-97922761D02*
X160800000Y-97884666D01*
X160800000Y-97884666D02*
X160876191Y-97846571D01*
X160876191Y-97846571D02*
X160952381Y-97846571D01*
X161142857Y-97846571D02*
X161333333Y-98379904D01*
X161523810Y-97846571D02*
X161333333Y-98379904D01*
X161333333Y-98379904D02*
X161257143Y-98570380D01*
X161257143Y-98570380D02*
X161219048Y-98608476D01*
X161219048Y-98608476D02*
X161142857Y-98646571D01*
X162308572Y-98075142D02*
X162918096Y-98075142D01*
X163702857Y-97579904D02*
X164198095Y-97579904D01*
X164198095Y-97579904D02*
X163931429Y-97884666D01*
X163931429Y-97884666D02*
X164045714Y-97884666D01*
X164045714Y-97884666D02*
X164121905Y-97922761D01*
X164121905Y-97922761D02*
X164160000Y-97960857D01*
X164160000Y-97960857D02*
X164198095Y-98037047D01*
X164198095Y-98037047D02*
X164198095Y-98227523D01*
X164198095Y-98227523D02*
X164160000Y-98303714D01*
X164160000Y-98303714D02*
X164121905Y-98341809D01*
X164121905Y-98341809D02*
X164045714Y-98379904D01*
X164045714Y-98379904D02*
X163817143Y-98379904D01*
X163817143Y-98379904D02*
X163740952Y-98341809D01*
X163740952Y-98341809D02*
X163702857Y-98303714D01*
X164540953Y-98303714D02*
X164579048Y-98341809D01*
X164579048Y-98341809D02*
X164540953Y-98379904D01*
X164540953Y-98379904D02*
X164502857Y-98341809D01*
X164502857Y-98341809D02*
X164540953Y-98303714D01*
X164540953Y-98303714D02*
X164540953Y-98379904D01*
X164883809Y-97656095D02*
X164921905Y-97618000D01*
X164921905Y-97618000D02*
X164998095Y-97579904D01*
X164998095Y-97579904D02*
X165188571Y-97579904D01*
X165188571Y-97579904D02*
X165264762Y-97618000D01*
X165264762Y-97618000D02*
X165302857Y-97656095D01*
X165302857Y-97656095D02*
X165340952Y-97732285D01*
X165340952Y-97732285D02*
X165340952Y-97808476D01*
X165340952Y-97808476D02*
X165302857Y-97922761D01*
X165302857Y-97922761D02*
X164845714Y-98379904D01*
X164845714Y-98379904D02*
X165340952Y-98379904D01*
X165569524Y-97579904D02*
X165836191Y-98379904D01*
X165836191Y-98379904D02*
X166102857Y-97579904D01*
X166940952Y-97541809D02*
X166255238Y-98570380D01*
X167550476Y-98341809D02*
X167474285Y-98379904D01*
X167474285Y-98379904D02*
X167321904Y-98379904D01*
X167321904Y-98379904D02*
X167245714Y-98341809D01*
X167245714Y-98341809D02*
X167207619Y-98303714D01*
X167207619Y-98303714D02*
X167169523Y-98227523D01*
X167169523Y-98227523D02*
X167169523Y-97998952D01*
X167169523Y-97998952D02*
X167207619Y-97922761D01*
X167207619Y-97922761D02*
X167245714Y-97884666D01*
X167245714Y-97884666D02*
X167321904Y-97846571D01*
X167321904Y-97846571D02*
X167474285Y-97846571D01*
X167474285Y-97846571D02*
X167550476Y-97884666D01*
X168198095Y-98341809D02*
X168121904Y-98379904D01*
X168121904Y-98379904D02*
X167969523Y-98379904D01*
X167969523Y-98379904D02*
X167893333Y-98341809D01*
X167893333Y-98341809D02*
X167855237Y-98265619D01*
X167855237Y-98265619D02*
X167855237Y-97960857D01*
X167855237Y-97960857D02*
X167893333Y-97884666D01*
X167893333Y-97884666D02*
X167969523Y-97846571D01*
X167969523Y-97846571D02*
X168121904Y-97846571D01*
X168121904Y-97846571D02*
X168198095Y-97884666D01*
X168198095Y-97884666D02*
X168236190Y-97960857D01*
X168236190Y-97960857D02*
X168236190Y-98037047D01*
X168236190Y-98037047D02*
X167855237Y-98113238D01*
X168693332Y-98379904D02*
X168617142Y-98341809D01*
X168617142Y-98341809D02*
X168579047Y-98265619D01*
X168579047Y-98265619D02*
X168579047Y-97579904D01*
X169112380Y-98379904D02*
X169036190Y-98341809D01*
X169036190Y-98341809D02*
X168998095Y-98265619D01*
X168998095Y-98265619D02*
X168998095Y-97579904D01*
X154872380Y-99637809D02*
X154986666Y-99675904D01*
X154986666Y-99675904D02*
X155177142Y-99675904D01*
X155177142Y-99675904D02*
X155253333Y-99637809D01*
X155253333Y-99637809D02*
X155291428Y-99599714D01*
X155291428Y-99599714D02*
X155329523Y-99523523D01*
X155329523Y-99523523D02*
X155329523Y-99447333D01*
X155329523Y-99447333D02*
X155291428Y-99371142D01*
X155291428Y-99371142D02*
X155253333Y-99333047D01*
X155253333Y-99333047D02*
X155177142Y-99294952D01*
X155177142Y-99294952D02*
X155024761Y-99256857D01*
X155024761Y-99256857D02*
X154948571Y-99218761D01*
X154948571Y-99218761D02*
X154910476Y-99180666D01*
X154910476Y-99180666D02*
X154872380Y-99104476D01*
X154872380Y-99104476D02*
X154872380Y-99028285D01*
X154872380Y-99028285D02*
X154910476Y-98952095D01*
X154910476Y-98952095D02*
X154948571Y-98914000D01*
X154948571Y-98914000D02*
X155024761Y-98875904D01*
X155024761Y-98875904D02*
X155215238Y-98875904D01*
X155215238Y-98875904D02*
X155329523Y-98914000D01*
X155672381Y-99675904D02*
X155672381Y-98875904D01*
X156015238Y-99675904D02*
X156015238Y-99256857D01*
X156015238Y-99256857D02*
X155977143Y-99180666D01*
X155977143Y-99180666D02*
X155900952Y-99142571D01*
X155900952Y-99142571D02*
X155786666Y-99142571D01*
X155786666Y-99142571D02*
X155710476Y-99180666D01*
X155710476Y-99180666D02*
X155672381Y-99218761D01*
X156739048Y-99142571D02*
X156739048Y-99675904D01*
X156396191Y-99142571D02*
X156396191Y-99561619D01*
X156396191Y-99561619D02*
X156434286Y-99637809D01*
X156434286Y-99637809D02*
X156510476Y-99675904D01*
X156510476Y-99675904D02*
X156624762Y-99675904D01*
X156624762Y-99675904D02*
X156700953Y-99637809D01*
X156700953Y-99637809D02*
X156739048Y-99599714D01*
X157005715Y-99142571D02*
X157310477Y-99142571D01*
X157120001Y-98875904D02*
X157120001Y-99561619D01*
X157120001Y-99561619D02*
X157158096Y-99637809D01*
X157158096Y-99637809D02*
X157234286Y-99675904D01*
X157234286Y-99675904D02*
X157310477Y-99675904D01*
X157920001Y-99675904D02*
X157920001Y-98875904D01*
X157920001Y-99637809D02*
X157843810Y-99675904D01*
X157843810Y-99675904D02*
X157691429Y-99675904D01*
X157691429Y-99675904D02*
X157615239Y-99637809D01*
X157615239Y-99637809D02*
X157577144Y-99599714D01*
X157577144Y-99599714D02*
X157539048Y-99523523D01*
X157539048Y-99523523D02*
X157539048Y-99294952D01*
X157539048Y-99294952D02*
X157577144Y-99218761D01*
X157577144Y-99218761D02*
X157615239Y-99180666D01*
X157615239Y-99180666D02*
X157691429Y-99142571D01*
X157691429Y-99142571D02*
X157843810Y-99142571D01*
X157843810Y-99142571D02*
X157920001Y-99180666D01*
X158415239Y-99675904D02*
X158339049Y-99637809D01*
X158339049Y-99637809D02*
X158300954Y-99599714D01*
X158300954Y-99599714D02*
X158262858Y-99523523D01*
X158262858Y-99523523D02*
X158262858Y-99294952D01*
X158262858Y-99294952D02*
X158300954Y-99218761D01*
X158300954Y-99218761D02*
X158339049Y-99180666D01*
X158339049Y-99180666D02*
X158415239Y-99142571D01*
X158415239Y-99142571D02*
X158529525Y-99142571D01*
X158529525Y-99142571D02*
X158605716Y-99180666D01*
X158605716Y-99180666D02*
X158643811Y-99218761D01*
X158643811Y-99218761D02*
X158681906Y-99294952D01*
X158681906Y-99294952D02*
X158681906Y-99523523D01*
X158681906Y-99523523D02*
X158643811Y-99599714D01*
X158643811Y-99599714D02*
X158605716Y-99637809D01*
X158605716Y-99637809D02*
X158529525Y-99675904D01*
X158529525Y-99675904D02*
X158415239Y-99675904D01*
X158948573Y-99142571D02*
X159100954Y-99675904D01*
X159100954Y-99675904D02*
X159253335Y-99294952D01*
X159253335Y-99294952D02*
X159405716Y-99675904D01*
X159405716Y-99675904D02*
X159558097Y-99142571D01*
X159862859Y-99142571D02*
X159862859Y-99675904D01*
X159862859Y-99218761D02*
X159900954Y-99180666D01*
X159900954Y-99180666D02*
X159977144Y-99142571D01*
X159977144Y-99142571D02*
X160091430Y-99142571D01*
X160091430Y-99142571D02*
X160167621Y-99180666D01*
X160167621Y-99180666D02*
X160205716Y-99256857D01*
X160205716Y-99256857D02*
X160205716Y-99675904D01*
X161066669Y-99371142D02*
X161676193Y-99371142D01*
X162460954Y-98875904D02*
X162956192Y-98875904D01*
X162956192Y-98875904D02*
X162689526Y-99180666D01*
X162689526Y-99180666D02*
X162803811Y-99180666D01*
X162803811Y-99180666D02*
X162880002Y-99218761D01*
X162880002Y-99218761D02*
X162918097Y-99256857D01*
X162918097Y-99256857D02*
X162956192Y-99333047D01*
X162956192Y-99333047D02*
X162956192Y-99523523D01*
X162956192Y-99523523D02*
X162918097Y-99599714D01*
X162918097Y-99599714D02*
X162880002Y-99637809D01*
X162880002Y-99637809D02*
X162803811Y-99675904D01*
X162803811Y-99675904D02*
X162575240Y-99675904D01*
X162575240Y-99675904D02*
X162499049Y-99637809D01*
X162499049Y-99637809D02*
X162460954Y-99599714D01*
X163299050Y-99599714D02*
X163337145Y-99637809D01*
X163337145Y-99637809D02*
X163299050Y-99675904D01*
X163299050Y-99675904D02*
X163260954Y-99637809D01*
X163260954Y-99637809D02*
X163299050Y-99599714D01*
X163299050Y-99599714D02*
X163299050Y-99675904D01*
X163832383Y-98875904D02*
X163908573Y-98875904D01*
X163908573Y-98875904D02*
X163984764Y-98914000D01*
X163984764Y-98914000D02*
X164022859Y-98952095D01*
X164022859Y-98952095D02*
X164060954Y-99028285D01*
X164060954Y-99028285D02*
X164099049Y-99180666D01*
X164099049Y-99180666D02*
X164099049Y-99371142D01*
X164099049Y-99371142D02*
X164060954Y-99523523D01*
X164060954Y-99523523D02*
X164022859Y-99599714D01*
X164022859Y-99599714D02*
X163984764Y-99637809D01*
X163984764Y-99637809D02*
X163908573Y-99675904D01*
X163908573Y-99675904D02*
X163832383Y-99675904D01*
X163832383Y-99675904D02*
X163756192Y-99637809D01*
X163756192Y-99637809D02*
X163718097Y-99599714D01*
X163718097Y-99599714D02*
X163680002Y-99523523D01*
X163680002Y-99523523D02*
X163641906Y-99371142D01*
X163641906Y-99371142D02*
X163641906Y-99180666D01*
X163641906Y-99180666D02*
X163680002Y-99028285D01*
X163680002Y-99028285D02*
X163718097Y-98952095D01*
X163718097Y-98952095D02*
X163756192Y-98914000D01*
X163756192Y-98914000D02*
X163832383Y-98875904D01*
X164327621Y-98875904D02*
X164594288Y-99675904D01*
X164594288Y-99675904D02*
X164860954Y-98875904D01*
X165699049Y-98837809D02*
X165013335Y-99866380D01*
X166308573Y-99637809D02*
X166232382Y-99675904D01*
X166232382Y-99675904D02*
X166080001Y-99675904D01*
X166080001Y-99675904D02*
X166003811Y-99637809D01*
X166003811Y-99637809D02*
X165965716Y-99599714D01*
X165965716Y-99599714D02*
X165927620Y-99523523D01*
X165927620Y-99523523D02*
X165927620Y-99294952D01*
X165927620Y-99294952D02*
X165965716Y-99218761D01*
X165965716Y-99218761D02*
X166003811Y-99180666D01*
X166003811Y-99180666D02*
X166080001Y-99142571D01*
X166080001Y-99142571D02*
X166232382Y-99142571D01*
X166232382Y-99142571D02*
X166308573Y-99180666D01*
X166956192Y-99637809D02*
X166880001Y-99675904D01*
X166880001Y-99675904D02*
X166727620Y-99675904D01*
X166727620Y-99675904D02*
X166651430Y-99637809D01*
X166651430Y-99637809D02*
X166613334Y-99561619D01*
X166613334Y-99561619D02*
X166613334Y-99256857D01*
X166613334Y-99256857D02*
X166651430Y-99180666D01*
X166651430Y-99180666D02*
X166727620Y-99142571D01*
X166727620Y-99142571D02*
X166880001Y-99142571D01*
X166880001Y-99142571D02*
X166956192Y-99180666D01*
X166956192Y-99180666D02*
X166994287Y-99256857D01*
X166994287Y-99256857D02*
X166994287Y-99333047D01*
X166994287Y-99333047D02*
X166613334Y-99409238D01*
X167451429Y-99675904D02*
X167375239Y-99637809D01*
X167375239Y-99637809D02*
X167337144Y-99561619D01*
X167337144Y-99561619D02*
X167337144Y-98875904D01*
X167870477Y-99675904D02*
X167794287Y-99637809D01*
X167794287Y-99637809D02*
X167756192Y-99561619D01*
X167756192Y-99561619D02*
X167756192Y-98875904D01*
D10*
X147098095Y-88842380D02*
X147098095Y-87842380D01*
X147098095Y-87842380D02*
X147479047Y-87842380D01*
X147479047Y-87842380D02*
X147574285Y-87890000D01*
X147574285Y-87890000D02*
X147621904Y-87937619D01*
X147621904Y-87937619D02*
X147669523Y-88032857D01*
X147669523Y-88032857D02*
X147669523Y-88175714D01*
X147669523Y-88175714D02*
X147621904Y-88270952D01*
X147621904Y-88270952D02*
X147574285Y-88318571D01*
X147574285Y-88318571D02*
X147479047Y-88366190D01*
X147479047Y-88366190D02*
X147098095Y-88366190D01*
X148240952Y-88842380D02*
X148145714Y-88794761D01*
X148145714Y-88794761D02*
X148098095Y-88747142D01*
X148098095Y-88747142D02*
X148050476Y-88651904D01*
X148050476Y-88651904D02*
X148050476Y-88366190D01*
X148050476Y-88366190D02*
X148098095Y-88270952D01*
X148098095Y-88270952D02*
X148145714Y-88223333D01*
X148145714Y-88223333D02*
X148240952Y-88175714D01*
X148240952Y-88175714D02*
X148383809Y-88175714D01*
X148383809Y-88175714D02*
X148479047Y-88223333D01*
X148479047Y-88223333D02*
X148526666Y-88270952D01*
X148526666Y-88270952D02*
X148574285Y-88366190D01*
X148574285Y-88366190D02*
X148574285Y-88651904D01*
X148574285Y-88651904D02*
X148526666Y-88747142D01*
X148526666Y-88747142D02*
X148479047Y-88794761D01*
X148479047Y-88794761D02*
X148383809Y-88842380D01*
X148383809Y-88842380D02*
X148240952Y-88842380D01*
X149145714Y-88842380D02*
X149050476Y-88794761D01*
X149050476Y-88794761D02*
X149002857Y-88699523D01*
X149002857Y-88699523D02*
X149002857Y-87842380D01*
X149669524Y-88842380D02*
X149574286Y-88794761D01*
X149574286Y-88794761D02*
X149526667Y-88747142D01*
X149526667Y-88747142D02*
X149479048Y-88651904D01*
X149479048Y-88651904D02*
X149479048Y-88366190D01*
X149479048Y-88366190D02*
X149526667Y-88270952D01*
X149526667Y-88270952D02*
X149574286Y-88223333D01*
X149574286Y-88223333D02*
X149669524Y-88175714D01*
X149669524Y-88175714D02*
X149812381Y-88175714D01*
X149812381Y-88175714D02*
X149907619Y-88223333D01*
X149907619Y-88223333D02*
X149955238Y-88270952D01*
X149955238Y-88270952D02*
X150002857Y-88366190D01*
X150002857Y-88366190D02*
X150002857Y-88651904D01*
X150002857Y-88651904D02*
X149955238Y-88747142D01*
X149955238Y-88747142D02*
X149907619Y-88794761D01*
X149907619Y-88794761D02*
X149812381Y-88842380D01*
X149812381Y-88842380D02*
X149669524Y-88842380D01*
X150574286Y-88842380D02*
X150479048Y-88794761D01*
X150479048Y-88794761D02*
X150431429Y-88699523D01*
X150431429Y-88699523D02*
X150431429Y-87842380D01*
X151383810Y-88175714D02*
X151383810Y-88842380D01*
X150955239Y-88175714D02*
X150955239Y-88699523D01*
X150955239Y-88699523D02*
X151002858Y-88794761D01*
X151002858Y-88794761D02*
X151098096Y-88842380D01*
X151098096Y-88842380D02*
X151240953Y-88842380D01*
X151240953Y-88842380D02*
X151336191Y-88794761D01*
X151336191Y-88794761D02*
X151383810Y-88747142D01*
X152460001Y-88842380D02*
X152460001Y-87842380D01*
X152460001Y-87842380D02*
X152698096Y-87842380D01*
X152698096Y-87842380D02*
X152840953Y-87890000D01*
X152840953Y-87890000D02*
X152936191Y-87985238D01*
X152936191Y-87985238D02*
X152983810Y-88080476D01*
X152983810Y-88080476D02*
X153031429Y-88270952D01*
X153031429Y-88270952D02*
X153031429Y-88413809D01*
X153031429Y-88413809D02*
X152983810Y-88604285D01*
X152983810Y-88604285D02*
X152936191Y-88699523D01*
X152936191Y-88699523D02*
X152840953Y-88794761D01*
X152840953Y-88794761D02*
X152698096Y-88842380D01*
X152698096Y-88842380D02*
X152460001Y-88842380D01*
X153983810Y-88842380D02*
X153412382Y-88842380D01*
X153698096Y-88842380D02*
X153698096Y-87842380D01*
X153698096Y-87842380D02*
X153602858Y-87985238D01*
X153602858Y-87985238D02*
X153507620Y-88080476D01*
X153507620Y-88080476D02*
X153412382Y-88128095D01*
X154888572Y-87842380D02*
X154412382Y-87842380D01*
X154412382Y-87842380D02*
X154364763Y-88318571D01*
X154364763Y-88318571D02*
X154412382Y-88270952D01*
X154412382Y-88270952D02*
X154507620Y-88223333D01*
X154507620Y-88223333D02*
X154745715Y-88223333D01*
X154745715Y-88223333D02*
X154840953Y-88270952D01*
X154840953Y-88270952D02*
X154888572Y-88318571D01*
X154888572Y-88318571D02*
X154936191Y-88413809D01*
X154936191Y-88413809D02*
X154936191Y-88651904D01*
X154936191Y-88651904D02*
X154888572Y-88747142D01*
X154888572Y-88747142D02*
X154840953Y-88794761D01*
X154840953Y-88794761D02*
X154745715Y-88842380D01*
X154745715Y-88842380D02*
X154507620Y-88842380D01*
X154507620Y-88842380D02*
X154412382Y-88794761D01*
X154412382Y-88794761D02*
X154364763Y-88747142D01*
X155221906Y-87842380D02*
X155555239Y-88842380D01*
X155555239Y-88842380D02*
X155888572Y-87842380D01*
X156126668Y-87842380D02*
X156793334Y-87842380D01*
X156793334Y-87842380D02*
X156364763Y-88842380D01*
X157364763Y-87842380D02*
X157460001Y-87842380D01*
X157460001Y-87842380D02*
X157555239Y-87890000D01*
X157555239Y-87890000D02*
X157602858Y-87937619D01*
X157602858Y-87937619D02*
X157650477Y-88032857D01*
X157650477Y-88032857D02*
X157698096Y-88223333D01*
X157698096Y-88223333D02*
X157698096Y-88461428D01*
X157698096Y-88461428D02*
X157650477Y-88651904D01*
X157650477Y-88651904D02*
X157602858Y-88747142D01*
X157602858Y-88747142D02*
X157555239Y-88794761D01*
X157555239Y-88794761D02*
X157460001Y-88842380D01*
X157460001Y-88842380D02*
X157364763Y-88842380D01*
X157364763Y-88842380D02*
X157269525Y-88794761D01*
X157269525Y-88794761D02*
X157221906Y-88747142D01*
X157221906Y-88747142D02*
X157174287Y-88651904D01*
X157174287Y-88651904D02*
X157126668Y-88461428D01*
X157126668Y-88461428D02*
X157126668Y-88223333D01*
X157126668Y-88223333D02*
X157174287Y-88032857D01*
X157174287Y-88032857D02*
X157221906Y-87937619D01*
X157221906Y-87937619D02*
X157269525Y-87890000D01*
X157269525Y-87890000D02*
X157364763Y-87842380D01*
X158460001Y-88318571D02*
X158126668Y-88318571D01*
X158126668Y-88842380D02*
X158126668Y-87842380D01*
X158126668Y-87842380D02*
X158602858Y-87842380D01*
X159460001Y-87842380D02*
X158983811Y-87842380D01*
X158983811Y-87842380D02*
X158936192Y-88318571D01*
X158936192Y-88318571D02*
X158983811Y-88270952D01*
X158983811Y-88270952D02*
X159079049Y-88223333D01*
X159079049Y-88223333D02*
X159317144Y-88223333D01*
X159317144Y-88223333D02*
X159412382Y-88270952D01*
X159412382Y-88270952D02*
X159460001Y-88318571D01*
X159460001Y-88318571D02*
X159507620Y-88413809D01*
X159507620Y-88413809D02*
X159507620Y-88651904D01*
X159507620Y-88651904D02*
X159460001Y-88747142D01*
X159460001Y-88747142D02*
X159412382Y-88794761D01*
X159412382Y-88794761D02*
X159317144Y-88842380D01*
X159317144Y-88842380D02*
X159079049Y-88842380D01*
X159079049Y-88842380D02*
X158983811Y-88794761D01*
X158983811Y-88794761D02*
X158936192Y-88747142D01*
X159888573Y-88794761D02*
X160031430Y-88842380D01*
X160031430Y-88842380D02*
X160269525Y-88842380D01*
X160269525Y-88842380D02*
X160364763Y-88794761D01*
X160364763Y-88794761D02*
X160412382Y-88747142D01*
X160412382Y-88747142D02*
X160460001Y-88651904D01*
X160460001Y-88651904D02*
X160460001Y-88556666D01*
X160460001Y-88556666D02*
X160412382Y-88461428D01*
X160412382Y-88461428D02*
X160364763Y-88413809D01*
X160364763Y-88413809D02*
X160269525Y-88366190D01*
X160269525Y-88366190D02*
X160079049Y-88318571D01*
X160079049Y-88318571D02*
X159983811Y-88270952D01*
X159983811Y-88270952D02*
X159936192Y-88223333D01*
X159936192Y-88223333D02*
X159888573Y-88128095D01*
X159888573Y-88128095D02*
X159888573Y-88032857D01*
X159888573Y-88032857D02*
X159936192Y-87937619D01*
X159936192Y-87937619D02*
X159983811Y-87890000D01*
X159983811Y-87890000D02*
X160079049Y-87842380D01*
X160079049Y-87842380D02*
X160317144Y-87842380D01*
X160317144Y-87842380D02*
X160460001Y-87890000D01*
X160793335Y-87842380D02*
X161412382Y-87842380D01*
X161412382Y-87842380D02*
X161079049Y-88223333D01*
X161079049Y-88223333D02*
X161221906Y-88223333D01*
X161221906Y-88223333D02*
X161317144Y-88270952D01*
X161317144Y-88270952D02*
X161364763Y-88318571D01*
X161364763Y-88318571D02*
X161412382Y-88413809D01*
X161412382Y-88413809D02*
X161412382Y-88651904D01*
X161412382Y-88651904D02*
X161364763Y-88747142D01*
X161364763Y-88747142D02*
X161317144Y-88794761D01*
X161317144Y-88794761D02*
X161221906Y-88842380D01*
X161221906Y-88842380D02*
X160936192Y-88842380D01*
X160936192Y-88842380D02*
X160840954Y-88794761D01*
X160840954Y-88794761D02*
X160793335Y-88747142D01*
X147574285Y-89462380D02*
X147098095Y-89462380D01*
X147098095Y-89462380D02*
X147050476Y-89938571D01*
X147050476Y-89938571D02*
X147098095Y-89890952D01*
X147098095Y-89890952D02*
X147193333Y-89843333D01*
X147193333Y-89843333D02*
X147431428Y-89843333D01*
X147431428Y-89843333D02*
X147526666Y-89890952D01*
X147526666Y-89890952D02*
X147574285Y-89938571D01*
X147574285Y-89938571D02*
X147621904Y-90033809D01*
X147621904Y-90033809D02*
X147621904Y-90271904D01*
X147621904Y-90271904D02*
X147574285Y-90367142D01*
X147574285Y-90367142D02*
X147526666Y-90414761D01*
X147526666Y-90414761D02*
X147431428Y-90462380D01*
X147431428Y-90462380D02*
X147193333Y-90462380D01*
X147193333Y-90462380D02*
X147098095Y-90414761D01*
X147098095Y-90414761D02*
X147050476Y-90367142D01*
X147907619Y-89462380D02*
X148240952Y-90462380D01*
X148240952Y-90462380D02*
X148574285Y-89462380D01*
X149621904Y-89414761D02*
X148764762Y-90700476D01*
X149860000Y-89462380D02*
X150526666Y-89462380D01*
X150526666Y-89462380D02*
X150098095Y-90462380D01*
X150860000Y-90176666D02*
X151336190Y-90176666D01*
X150764762Y-90462380D02*
X151098095Y-89462380D01*
X151098095Y-89462380D02*
X151431428Y-90462380D01*
X152936190Y-90462380D02*
X152602857Y-89986190D01*
X152364762Y-90462380D02*
X152364762Y-89462380D01*
X152364762Y-89462380D02*
X152745714Y-89462380D01*
X152745714Y-89462380D02*
X152840952Y-89510000D01*
X152840952Y-89510000D02*
X152888571Y-89557619D01*
X152888571Y-89557619D02*
X152936190Y-89652857D01*
X152936190Y-89652857D02*
X152936190Y-89795714D01*
X152936190Y-89795714D02*
X152888571Y-89890952D01*
X152888571Y-89890952D02*
X152840952Y-89938571D01*
X152840952Y-89938571D02*
X152745714Y-89986190D01*
X152745714Y-89986190D02*
X152364762Y-89986190D01*
X153745714Y-90414761D02*
X153650476Y-90462380D01*
X153650476Y-90462380D02*
X153460000Y-90462380D01*
X153460000Y-90462380D02*
X153364762Y-90414761D01*
X153364762Y-90414761D02*
X153317143Y-90319523D01*
X153317143Y-90319523D02*
X153317143Y-89938571D01*
X153317143Y-89938571D02*
X153364762Y-89843333D01*
X153364762Y-89843333D02*
X153460000Y-89795714D01*
X153460000Y-89795714D02*
X153650476Y-89795714D01*
X153650476Y-89795714D02*
X153745714Y-89843333D01*
X153745714Y-89843333D02*
X153793333Y-89938571D01*
X153793333Y-89938571D02*
X153793333Y-90033809D01*
X153793333Y-90033809D02*
X153317143Y-90129047D01*
X154650476Y-89795714D02*
X154650476Y-90605238D01*
X154650476Y-90605238D02*
X154602857Y-90700476D01*
X154602857Y-90700476D02*
X154555238Y-90748095D01*
X154555238Y-90748095D02*
X154460000Y-90795714D01*
X154460000Y-90795714D02*
X154317143Y-90795714D01*
X154317143Y-90795714D02*
X154221905Y-90748095D01*
X154650476Y-90414761D02*
X154555238Y-90462380D01*
X154555238Y-90462380D02*
X154364762Y-90462380D01*
X154364762Y-90462380D02*
X154269524Y-90414761D01*
X154269524Y-90414761D02*
X154221905Y-90367142D01*
X154221905Y-90367142D02*
X154174286Y-90271904D01*
X154174286Y-90271904D02*
X154174286Y-89986190D01*
X154174286Y-89986190D02*
X154221905Y-89890952D01*
X154221905Y-89890952D02*
X154269524Y-89843333D01*
X154269524Y-89843333D02*
X154364762Y-89795714D01*
X154364762Y-89795714D02*
X154555238Y-89795714D01*
X154555238Y-89795714D02*
X154650476Y-89843333D01*
X155555238Y-89795714D02*
X155555238Y-90462380D01*
X155126667Y-89795714D02*
X155126667Y-90319523D01*
X155126667Y-90319523D02*
X155174286Y-90414761D01*
X155174286Y-90414761D02*
X155269524Y-90462380D01*
X155269524Y-90462380D02*
X155412381Y-90462380D01*
X155412381Y-90462380D02*
X155507619Y-90414761D01*
X155507619Y-90414761D02*
X155555238Y-90367142D01*
X156174286Y-90462380D02*
X156079048Y-90414761D01*
X156079048Y-90414761D02*
X156031429Y-90319523D01*
X156031429Y-90319523D02*
X156031429Y-89462380D01*
X156983810Y-90462380D02*
X156983810Y-89938571D01*
X156983810Y-89938571D02*
X156936191Y-89843333D01*
X156936191Y-89843333D02*
X156840953Y-89795714D01*
X156840953Y-89795714D02*
X156650477Y-89795714D01*
X156650477Y-89795714D02*
X156555239Y-89843333D01*
X156983810Y-90414761D02*
X156888572Y-90462380D01*
X156888572Y-90462380D02*
X156650477Y-90462380D01*
X156650477Y-90462380D02*
X156555239Y-90414761D01*
X156555239Y-90414761D02*
X156507620Y-90319523D01*
X156507620Y-90319523D02*
X156507620Y-90224285D01*
X156507620Y-90224285D02*
X156555239Y-90129047D01*
X156555239Y-90129047D02*
X156650477Y-90081428D01*
X156650477Y-90081428D02*
X156888572Y-90081428D01*
X156888572Y-90081428D02*
X156983810Y-90033809D01*
X157317144Y-89795714D02*
X157698096Y-89795714D01*
X157460001Y-89462380D02*
X157460001Y-90319523D01*
X157460001Y-90319523D02*
X157507620Y-90414761D01*
X157507620Y-90414761D02*
X157602858Y-90462380D01*
X157602858Y-90462380D02*
X157698096Y-90462380D01*
X158174287Y-90462380D02*
X158079049Y-90414761D01*
X158079049Y-90414761D02*
X158031430Y-90367142D01*
X158031430Y-90367142D02*
X157983811Y-90271904D01*
X157983811Y-90271904D02*
X157983811Y-89986190D01*
X157983811Y-89986190D02*
X158031430Y-89890952D01*
X158031430Y-89890952D02*
X158079049Y-89843333D01*
X158079049Y-89843333D02*
X158174287Y-89795714D01*
X158174287Y-89795714D02*
X158317144Y-89795714D01*
X158317144Y-89795714D02*
X158412382Y-89843333D01*
X158412382Y-89843333D02*
X158460001Y-89890952D01*
X158460001Y-89890952D02*
X158507620Y-89986190D01*
X158507620Y-89986190D02*
X158507620Y-90271904D01*
X158507620Y-90271904D02*
X158460001Y-90367142D01*
X158460001Y-90367142D02*
X158412382Y-90414761D01*
X158412382Y-90414761D02*
X158317144Y-90462380D01*
X158317144Y-90462380D02*
X158174287Y-90462380D01*
X158936192Y-90462380D02*
X158936192Y-89795714D01*
X158936192Y-89986190D02*
X158983811Y-89890952D01*
X158983811Y-89890952D02*
X159031430Y-89843333D01*
X159031430Y-89843333D02*
X159126668Y-89795714D01*
X159126668Y-89795714D02*
X159221906Y-89795714D01*
X124008095Y-95282380D02*
X124008095Y-94282380D01*
X124008095Y-94282380D02*
X124246190Y-94282380D01*
X124246190Y-94282380D02*
X124389047Y-94330000D01*
X124389047Y-94330000D02*
X124484285Y-94425238D01*
X124484285Y-94425238D02*
X124531904Y-94520476D01*
X124531904Y-94520476D02*
X124579523Y-94710952D01*
X124579523Y-94710952D02*
X124579523Y-94853809D01*
X124579523Y-94853809D02*
X124531904Y-95044285D01*
X124531904Y-95044285D02*
X124484285Y-95139523D01*
X124484285Y-95139523D02*
X124389047Y-95234761D01*
X124389047Y-95234761D02*
X124246190Y-95282380D01*
X124246190Y-95282380D02*
X124008095Y-95282380D01*
X125389047Y-95234761D02*
X125293809Y-95282380D01*
X125293809Y-95282380D02*
X125103333Y-95282380D01*
X125103333Y-95282380D02*
X125008095Y-95234761D01*
X125008095Y-95234761D02*
X124960476Y-95139523D01*
X124960476Y-95139523D02*
X124960476Y-94758571D01*
X124960476Y-94758571D02*
X125008095Y-94663333D01*
X125008095Y-94663333D02*
X125103333Y-94615714D01*
X125103333Y-94615714D02*
X125293809Y-94615714D01*
X125293809Y-94615714D02*
X125389047Y-94663333D01*
X125389047Y-94663333D02*
X125436666Y-94758571D01*
X125436666Y-94758571D02*
X125436666Y-94853809D01*
X125436666Y-94853809D02*
X124960476Y-94949047D01*
X125817619Y-95234761D02*
X125912857Y-95282380D01*
X125912857Y-95282380D02*
X126103333Y-95282380D01*
X126103333Y-95282380D02*
X126198571Y-95234761D01*
X126198571Y-95234761D02*
X126246190Y-95139523D01*
X126246190Y-95139523D02*
X126246190Y-95091904D01*
X126246190Y-95091904D02*
X126198571Y-94996666D01*
X126198571Y-94996666D02*
X126103333Y-94949047D01*
X126103333Y-94949047D02*
X125960476Y-94949047D01*
X125960476Y-94949047D02*
X125865238Y-94901428D01*
X125865238Y-94901428D02*
X125817619Y-94806190D01*
X125817619Y-94806190D02*
X125817619Y-94758571D01*
X125817619Y-94758571D02*
X125865238Y-94663333D01*
X125865238Y-94663333D02*
X125960476Y-94615714D01*
X125960476Y-94615714D02*
X126103333Y-94615714D01*
X126103333Y-94615714D02*
X126198571Y-94663333D01*
X126674762Y-95282380D02*
X126674762Y-94615714D01*
X126674762Y-94282380D02*
X126627143Y-94330000D01*
X126627143Y-94330000D02*
X126674762Y-94377619D01*
X126674762Y-94377619D02*
X126722381Y-94330000D01*
X126722381Y-94330000D02*
X126674762Y-94282380D01*
X126674762Y-94282380D02*
X126674762Y-94377619D01*
X127579523Y-94615714D02*
X127579523Y-95425238D01*
X127579523Y-95425238D02*
X127531904Y-95520476D01*
X127531904Y-95520476D02*
X127484285Y-95568095D01*
X127484285Y-95568095D02*
X127389047Y-95615714D01*
X127389047Y-95615714D02*
X127246190Y-95615714D01*
X127246190Y-95615714D02*
X127150952Y-95568095D01*
X127579523Y-95234761D02*
X127484285Y-95282380D01*
X127484285Y-95282380D02*
X127293809Y-95282380D01*
X127293809Y-95282380D02*
X127198571Y-95234761D01*
X127198571Y-95234761D02*
X127150952Y-95187142D01*
X127150952Y-95187142D02*
X127103333Y-95091904D01*
X127103333Y-95091904D02*
X127103333Y-94806190D01*
X127103333Y-94806190D02*
X127150952Y-94710952D01*
X127150952Y-94710952D02*
X127198571Y-94663333D01*
X127198571Y-94663333D02*
X127293809Y-94615714D01*
X127293809Y-94615714D02*
X127484285Y-94615714D01*
X127484285Y-94615714D02*
X127579523Y-94663333D01*
X128055714Y-94615714D02*
X128055714Y-95282380D01*
X128055714Y-94710952D02*
X128103333Y-94663333D01*
X128103333Y-94663333D02*
X128198571Y-94615714D01*
X128198571Y-94615714D02*
X128341428Y-94615714D01*
X128341428Y-94615714D02*
X128436666Y-94663333D01*
X128436666Y-94663333D02*
X128484285Y-94758571D01*
X128484285Y-94758571D02*
X128484285Y-95282380D01*
X129341428Y-95234761D02*
X129246190Y-95282380D01*
X129246190Y-95282380D02*
X129055714Y-95282380D01*
X129055714Y-95282380D02*
X128960476Y-95234761D01*
X128960476Y-95234761D02*
X128912857Y-95139523D01*
X128912857Y-95139523D02*
X128912857Y-94758571D01*
X128912857Y-94758571D02*
X128960476Y-94663333D01*
X128960476Y-94663333D02*
X129055714Y-94615714D01*
X129055714Y-94615714D02*
X129246190Y-94615714D01*
X129246190Y-94615714D02*
X129341428Y-94663333D01*
X129341428Y-94663333D02*
X129389047Y-94758571D01*
X129389047Y-94758571D02*
X129389047Y-94853809D01*
X129389047Y-94853809D02*
X128912857Y-94949047D01*
X130246190Y-95282380D02*
X130246190Y-94282380D01*
X130246190Y-95234761D02*
X130150952Y-95282380D01*
X130150952Y-95282380D02*
X129960476Y-95282380D01*
X129960476Y-95282380D02*
X129865238Y-95234761D01*
X129865238Y-95234761D02*
X129817619Y-95187142D01*
X129817619Y-95187142D02*
X129770000Y-95091904D01*
X129770000Y-95091904D02*
X129770000Y-94806190D01*
X129770000Y-94806190D02*
X129817619Y-94710952D01*
X129817619Y-94710952D02*
X129865238Y-94663333D01*
X129865238Y-94663333D02*
X129960476Y-94615714D01*
X129960476Y-94615714D02*
X130150952Y-94615714D01*
X130150952Y-94615714D02*
X130246190Y-94663333D01*
X131179524Y-94615714D02*
X131560476Y-94615714D01*
X131322381Y-95282380D02*
X131322381Y-94425238D01*
X131322381Y-94425238D02*
X131370000Y-94330000D01*
X131370000Y-94330000D02*
X131465238Y-94282380D01*
X131465238Y-94282380D02*
X131560476Y-94282380D01*
X132036667Y-95282380D02*
X131941429Y-95234761D01*
X131941429Y-95234761D02*
X131893810Y-95187142D01*
X131893810Y-95187142D02*
X131846191Y-95091904D01*
X131846191Y-95091904D02*
X131846191Y-94806190D01*
X131846191Y-94806190D02*
X131893810Y-94710952D01*
X131893810Y-94710952D02*
X131941429Y-94663333D01*
X131941429Y-94663333D02*
X132036667Y-94615714D01*
X132036667Y-94615714D02*
X132179524Y-94615714D01*
X132179524Y-94615714D02*
X132274762Y-94663333D01*
X132274762Y-94663333D02*
X132322381Y-94710952D01*
X132322381Y-94710952D02*
X132370000Y-94806190D01*
X132370000Y-94806190D02*
X132370000Y-95091904D01*
X132370000Y-95091904D02*
X132322381Y-95187142D01*
X132322381Y-95187142D02*
X132274762Y-95234761D01*
X132274762Y-95234761D02*
X132179524Y-95282380D01*
X132179524Y-95282380D02*
X132036667Y-95282380D01*
X132798572Y-95282380D02*
X132798572Y-94615714D01*
X132798572Y-94806190D02*
X132846191Y-94710952D01*
X132846191Y-94710952D02*
X132893810Y-94663333D01*
X132893810Y-94663333D02*
X132989048Y-94615714D01*
X132989048Y-94615714D02*
X133084286Y-94615714D01*
X123912857Y-95902380D02*
X124531904Y-95902380D01*
X124531904Y-95902380D02*
X124198571Y-96283333D01*
X124198571Y-96283333D02*
X124341428Y-96283333D01*
X124341428Y-96283333D02*
X124436666Y-96330952D01*
X124436666Y-96330952D02*
X124484285Y-96378571D01*
X124484285Y-96378571D02*
X124531904Y-96473809D01*
X124531904Y-96473809D02*
X124531904Y-96711904D01*
X124531904Y-96711904D02*
X124484285Y-96807142D01*
X124484285Y-96807142D02*
X124436666Y-96854761D01*
X124436666Y-96854761D02*
X124341428Y-96902380D01*
X124341428Y-96902380D02*
X124055714Y-96902380D01*
X124055714Y-96902380D02*
X123960476Y-96854761D01*
X123960476Y-96854761D02*
X123912857Y-96807142D01*
X124960476Y-96521428D02*
X125722381Y-96521428D01*
X126627142Y-96854761D02*
X126531904Y-96902380D01*
X126531904Y-96902380D02*
X126341428Y-96902380D01*
X126341428Y-96902380D02*
X126246190Y-96854761D01*
X126246190Y-96854761D02*
X126198571Y-96807142D01*
X126198571Y-96807142D02*
X126150952Y-96711904D01*
X126150952Y-96711904D02*
X126150952Y-96426190D01*
X126150952Y-96426190D02*
X126198571Y-96330952D01*
X126198571Y-96330952D02*
X126246190Y-96283333D01*
X126246190Y-96283333D02*
X126341428Y-96235714D01*
X126341428Y-96235714D02*
X126531904Y-96235714D01*
X126531904Y-96235714D02*
X126627142Y-96283333D01*
X127436666Y-96854761D02*
X127341428Y-96902380D01*
X127341428Y-96902380D02*
X127150952Y-96902380D01*
X127150952Y-96902380D02*
X127055714Y-96854761D01*
X127055714Y-96854761D02*
X127008095Y-96759523D01*
X127008095Y-96759523D02*
X127008095Y-96378571D01*
X127008095Y-96378571D02*
X127055714Y-96283333D01*
X127055714Y-96283333D02*
X127150952Y-96235714D01*
X127150952Y-96235714D02*
X127341428Y-96235714D01*
X127341428Y-96235714D02*
X127436666Y-96283333D01*
X127436666Y-96283333D02*
X127484285Y-96378571D01*
X127484285Y-96378571D02*
X127484285Y-96473809D01*
X127484285Y-96473809D02*
X127008095Y-96569047D01*
X128055714Y-96902380D02*
X127960476Y-96854761D01*
X127960476Y-96854761D02*
X127912857Y-96759523D01*
X127912857Y-96759523D02*
X127912857Y-95902380D01*
X128579524Y-96902380D02*
X128484286Y-96854761D01*
X128484286Y-96854761D02*
X128436667Y-96759523D01*
X128436667Y-96759523D02*
X128436667Y-95902380D01*
X130036667Y-96902380D02*
X129560477Y-96902380D01*
X129560477Y-96902380D02*
X129560477Y-95902380D01*
X130370001Y-96902380D02*
X130370001Y-96235714D01*
X130370001Y-95902380D02*
X130322382Y-95950000D01*
X130322382Y-95950000D02*
X130370001Y-95997619D01*
X130370001Y-95997619D02*
X130417620Y-95950000D01*
X130417620Y-95950000D02*
X130370001Y-95902380D01*
X130370001Y-95902380D02*
X130370001Y-95997619D01*
X130846191Y-96902380D02*
X130846191Y-95902380D01*
X130846191Y-95902380D02*
X131227143Y-95902380D01*
X131227143Y-95902380D02*
X131322381Y-95950000D01*
X131322381Y-95950000D02*
X131370000Y-95997619D01*
X131370000Y-95997619D02*
X131417619Y-96092857D01*
X131417619Y-96092857D02*
X131417619Y-96235714D01*
X131417619Y-96235714D02*
X131370000Y-96330952D01*
X131370000Y-96330952D02*
X131322381Y-96378571D01*
X131322381Y-96378571D02*
X131227143Y-96426190D01*
X131227143Y-96426190D02*
X130846191Y-96426190D01*
X131989048Y-96902380D02*
X131893810Y-96854761D01*
X131893810Y-96854761D02*
X131846191Y-96807142D01*
X131846191Y-96807142D02*
X131798572Y-96711904D01*
X131798572Y-96711904D02*
X131798572Y-96426190D01*
X131798572Y-96426190D02*
X131846191Y-96330952D01*
X131846191Y-96330952D02*
X131893810Y-96283333D01*
X131893810Y-96283333D02*
X131989048Y-96235714D01*
X131989048Y-96235714D02*
X132131905Y-96235714D01*
X132131905Y-96235714D02*
X132227143Y-96283333D01*
X132227143Y-96283333D02*
X132274762Y-96330952D01*
X132274762Y-96330952D02*
X132322381Y-96426190D01*
X132322381Y-96426190D02*
X132322381Y-96711904D01*
X132322381Y-96711904D02*
X132274762Y-96807142D01*
X132274762Y-96807142D02*
X132227143Y-96854761D01*
X132227143Y-96854761D02*
X132131905Y-96902380D01*
X132131905Y-96902380D02*
X131989048Y-96902380D01*
X124341428Y-98718571D02*
X124008095Y-98718571D01*
X124008095Y-99242380D02*
X124008095Y-98242380D01*
X124008095Y-98242380D02*
X124484285Y-98242380D01*
X125293809Y-98575714D02*
X125293809Y-99242380D01*
X124865238Y-98575714D02*
X124865238Y-99099523D01*
X124865238Y-99099523D02*
X124912857Y-99194761D01*
X124912857Y-99194761D02*
X125008095Y-99242380D01*
X125008095Y-99242380D02*
X125150952Y-99242380D01*
X125150952Y-99242380D02*
X125246190Y-99194761D01*
X125246190Y-99194761D02*
X125293809Y-99147142D01*
X125722381Y-99194761D02*
X125817619Y-99242380D01*
X125817619Y-99242380D02*
X126008095Y-99242380D01*
X126008095Y-99242380D02*
X126103333Y-99194761D01*
X126103333Y-99194761D02*
X126150952Y-99099523D01*
X126150952Y-99099523D02*
X126150952Y-99051904D01*
X126150952Y-99051904D02*
X126103333Y-98956666D01*
X126103333Y-98956666D02*
X126008095Y-98909047D01*
X126008095Y-98909047D02*
X125865238Y-98909047D01*
X125865238Y-98909047D02*
X125770000Y-98861428D01*
X125770000Y-98861428D02*
X125722381Y-98766190D01*
X125722381Y-98766190D02*
X125722381Y-98718571D01*
X125722381Y-98718571D02*
X125770000Y-98623333D01*
X125770000Y-98623333D02*
X125865238Y-98575714D01*
X125865238Y-98575714D02*
X126008095Y-98575714D01*
X126008095Y-98575714D02*
X126103333Y-98623333D01*
X126960476Y-99194761D02*
X126865238Y-99242380D01*
X126865238Y-99242380D02*
X126674762Y-99242380D01*
X126674762Y-99242380D02*
X126579524Y-99194761D01*
X126579524Y-99194761D02*
X126531905Y-99099523D01*
X126531905Y-99099523D02*
X126531905Y-98718571D01*
X126531905Y-98718571D02*
X126579524Y-98623333D01*
X126579524Y-98623333D02*
X126674762Y-98575714D01*
X126674762Y-98575714D02*
X126865238Y-98575714D01*
X126865238Y-98575714D02*
X126960476Y-98623333D01*
X126960476Y-98623333D02*
X127008095Y-98718571D01*
X127008095Y-98718571D02*
X127008095Y-98813809D01*
X127008095Y-98813809D02*
X126531905Y-98909047D01*
X128655714Y-98766190D02*
X128608095Y-98718571D01*
X128608095Y-98718571D02*
X128512857Y-98670952D01*
X128512857Y-98670952D02*
X128417619Y-98670952D01*
X128417619Y-98670952D02*
X128322381Y-98718571D01*
X128322381Y-98718571D02*
X128274762Y-98766190D01*
X128274762Y-98766190D02*
X128227143Y-98861428D01*
X128227143Y-98861428D02*
X128227143Y-98956666D01*
X128227143Y-98956666D02*
X128274762Y-99051904D01*
X128274762Y-99051904D02*
X128322381Y-99099523D01*
X128322381Y-99099523D02*
X128417619Y-99147142D01*
X128417619Y-99147142D02*
X128512857Y-99147142D01*
X128512857Y-99147142D02*
X128608095Y-99099523D01*
X128608095Y-99099523D02*
X128655714Y-99051904D01*
X128655714Y-98670952D02*
X128655714Y-99051904D01*
X128655714Y-99051904D02*
X128703333Y-99099523D01*
X128703333Y-99099523D02*
X128750952Y-99099523D01*
X128750952Y-99099523D02*
X128846191Y-99051904D01*
X128846191Y-99051904D02*
X128893810Y-98956666D01*
X128893810Y-98956666D02*
X128893810Y-98718571D01*
X128893810Y-98718571D02*
X128798572Y-98575714D01*
X128798572Y-98575714D02*
X128655714Y-98480476D01*
X128655714Y-98480476D02*
X128465238Y-98432857D01*
X128465238Y-98432857D02*
X128274762Y-98480476D01*
X128274762Y-98480476D02*
X128131905Y-98575714D01*
X128131905Y-98575714D02*
X128036667Y-98718571D01*
X128036667Y-98718571D02*
X127989048Y-98909047D01*
X127989048Y-98909047D02*
X128036667Y-99099523D01*
X128036667Y-99099523D02*
X128131905Y-99242380D01*
X128131905Y-99242380D02*
X128274762Y-99337619D01*
X128274762Y-99337619D02*
X128465238Y-99385238D01*
X128465238Y-99385238D02*
X128655714Y-99337619D01*
X128655714Y-99337619D02*
X128798572Y-99242380D01*
X130446190Y-99242380D02*
X129874762Y-99242380D01*
X130160476Y-99242380D02*
X130160476Y-98242380D01*
X130160476Y-98242380D02*
X130065238Y-98385238D01*
X130065238Y-98385238D02*
X129970000Y-98480476D01*
X129970000Y-98480476D02*
X129874762Y-98528095D01*
X130827143Y-98337619D02*
X130874762Y-98290000D01*
X130874762Y-98290000D02*
X130970000Y-98242380D01*
X130970000Y-98242380D02*
X131208095Y-98242380D01*
X131208095Y-98242380D02*
X131303333Y-98290000D01*
X131303333Y-98290000D02*
X131350952Y-98337619D01*
X131350952Y-98337619D02*
X131398571Y-98432857D01*
X131398571Y-98432857D02*
X131398571Y-98528095D01*
X131398571Y-98528095D02*
X131350952Y-98670952D01*
X131350952Y-98670952D02*
X130779524Y-99242380D01*
X130779524Y-99242380D02*
X131398571Y-99242380D01*
X131684286Y-98242380D02*
X132017619Y-99242380D01*
X132017619Y-99242380D02*
X132350952Y-98242380D01*
X133398571Y-98194761D02*
X132541429Y-99480476D01*
X134208095Y-98242380D02*
X133731905Y-98242380D01*
X133731905Y-98242380D02*
X133684286Y-98718571D01*
X133684286Y-98718571D02*
X133731905Y-98670952D01*
X133731905Y-98670952D02*
X133827143Y-98623333D01*
X133827143Y-98623333D02*
X134065238Y-98623333D01*
X134065238Y-98623333D02*
X134160476Y-98670952D01*
X134160476Y-98670952D02*
X134208095Y-98718571D01*
X134208095Y-98718571D02*
X134255714Y-98813809D01*
X134255714Y-98813809D02*
X134255714Y-99051904D01*
X134255714Y-99051904D02*
X134208095Y-99147142D01*
X134208095Y-99147142D02*
X134160476Y-99194761D01*
X134160476Y-99194761D02*
X134065238Y-99242380D01*
X134065238Y-99242380D02*
X133827143Y-99242380D01*
X133827143Y-99242380D02*
X133731905Y-99194761D01*
X133731905Y-99194761D02*
X133684286Y-99147142D01*
X134636667Y-98956666D02*
X135112857Y-98956666D01*
X134541429Y-99242380D02*
X134874762Y-98242380D01*
X134874762Y-98242380D02*
X135208095Y-99242380D01*
D12*
X167367142Y-73593571D02*
X167367142Y-72093571D01*
X167367142Y-72093571D02*
X167724285Y-72093571D01*
X167724285Y-72093571D02*
X167938571Y-72165000D01*
X167938571Y-72165000D02*
X168081428Y-72307857D01*
X168081428Y-72307857D02*
X168152857Y-72450714D01*
X168152857Y-72450714D02*
X168224285Y-72736428D01*
X168224285Y-72736428D02*
X168224285Y-72950714D01*
X168224285Y-72950714D02*
X168152857Y-73236428D01*
X168152857Y-73236428D02*
X168081428Y-73379285D01*
X168081428Y-73379285D02*
X167938571Y-73522142D01*
X167938571Y-73522142D02*
X167724285Y-73593571D01*
X167724285Y-73593571D02*
X167367142Y-73593571D01*
X153554285Y-73450714D02*
X153482857Y-73522142D01*
X153482857Y-73522142D02*
X153268571Y-73593571D01*
X153268571Y-73593571D02*
X153125714Y-73593571D01*
X153125714Y-73593571D02*
X152911428Y-73522142D01*
X152911428Y-73522142D02*
X152768571Y-73379285D01*
X152768571Y-73379285D02*
X152697142Y-73236428D01*
X152697142Y-73236428D02*
X152625714Y-72950714D01*
X152625714Y-72950714D02*
X152625714Y-72736428D01*
X152625714Y-72736428D02*
X152697142Y-72450714D01*
X152697142Y-72450714D02*
X152768571Y-72307857D01*
X152768571Y-72307857D02*
X152911428Y-72165000D01*
X152911428Y-72165000D02*
X153125714Y-72093571D01*
X153125714Y-72093571D02*
X153268571Y-72093571D01*
X153268571Y-72093571D02*
X153482857Y-72165000D01*
X153482857Y-72165000D02*
X153554285Y-72236428D01*
X138517142Y-72807857D02*
X138731428Y-72879285D01*
X138731428Y-72879285D02*
X138802857Y-72950714D01*
X138802857Y-72950714D02*
X138874285Y-73093571D01*
X138874285Y-73093571D02*
X138874285Y-73307857D01*
X138874285Y-73307857D02*
X138802857Y-73450714D01*
X138802857Y-73450714D02*
X138731428Y-73522142D01*
X138731428Y-73522142D02*
X138588571Y-73593571D01*
X138588571Y-73593571D02*
X138017142Y-73593571D01*
X138017142Y-73593571D02*
X138017142Y-72093571D01*
X138017142Y-72093571D02*
X138517142Y-72093571D01*
X138517142Y-72093571D02*
X138660000Y-72165000D01*
X138660000Y-72165000D02*
X138731428Y-72236428D01*
X138731428Y-72236428D02*
X138802857Y-72379285D01*
X138802857Y-72379285D02*
X138802857Y-72522142D01*
X138802857Y-72522142D02*
X138731428Y-72665000D01*
X138731428Y-72665000D02*
X138660000Y-72736428D01*
X138660000Y-72736428D02*
X138517142Y-72807857D01*
X138517142Y-72807857D02*
X138017142Y-72807857D01*
X123345714Y-73165000D02*
X124060000Y-73165000D01*
X123202857Y-73593571D02*
X123702857Y-72093571D01*
X123702857Y-72093571D02*
X124202857Y-73593571D01*
D10*
X171984285Y-81032380D02*
X171508095Y-81032380D01*
X171508095Y-81032380D02*
X171508095Y-80032380D01*
X172460476Y-81032380D02*
X172365238Y-80984761D01*
X172365238Y-80984761D02*
X172317619Y-80937142D01*
X172317619Y-80937142D02*
X172270000Y-80841904D01*
X172270000Y-80841904D02*
X172270000Y-80556190D01*
X172270000Y-80556190D02*
X172317619Y-80460952D01*
X172317619Y-80460952D02*
X172365238Y-80413333D01*
X172365238Y-80413333D02*
X172460476Y-80365714D01*
X172460476Y-80365714D02*
X172603333Y-80365714D01*
X172603333Y-80365714D02*
X172698571Y-80413333D01*
X172698571Y-80413333D02*
X172746190Y-80460952D01*
X172746190Y-80460952D02*
X172793809Y-80556190D01*
X172793809Y-80556190D02*
X172793809Y-80841904D01*
X172793809Y-80841904D02*
X172746190Y-80937142D01*
X172746190Y-80937142D02*
X172698571Y-80984761D01*
X172698571Y-80984761D02*
X172603333Y-81032380D01*
X172603333Y-81032380D02*
X172460476Y-81032380D01*
X173127143Y-80365714D02*
X173317619Y-81032380D01*
X173317619Y-81032380D02*
X173508095Y-80556190D01*
X173508095Y-80556190D02*
X173698571Y-81032380D01*
X173698571Y-81032380D02*
X173889047Y-80365714D01*
X171841428Y-82128571D02*
X171984285Y-82176190D01*
X171984285Y-82176190D02*
X172031904Y-82223809D01*
X172031904Y-82223809D02*
X172079523Y-82319047D01*
X172079523Y-82319047D02*
X172079523Y-82461904D01*
X172079523Y-82461904D02*
X172031904Y-82557142D01*
X172031904Y-82557142D02*
X171984285Y-82604761D01*
X171984285Y-82604761D02*
X171889047Y-82652380D01*
X171889047Y-82652380D02*
X171508095Y-82652380D01*
X171508095Y-82652380D02*
X171508095Y-81652380D01*
X171508095Y-81652380D02*
X171841428Y-81652380D01*
X171841428Y-81652380D02*
X171936666Y-81700000D01*
X171936666Y-81700000D02*
X171984285Y-81747619D01*
X171984285Y-81747619D02*
X172031904Y-81842857D01*
X172031904Y-81842857D02*
X172031904Y-81938095D01*
X172031904Y-81938095D02*
X171984285Y-82033333D01*
X171984285Y-82033333D02*
X171936666Y-82080952D01*
X171936666Y-82080952D02*
X171841428Y-82128571D01*
X171841428Y-82128571D02*
X171508095Y-82128571D01*
X172936666Y-82652380D02*
X172936666Y-82128571D01*
X172936666Y-82128571D02*
X172889047Y-82033333D01*
X172889047Y-82033333D02*
X172793809Y-81985714D01*
X172793809Y-81985714D02*
X172603333Y-81985714D01*
X172603333Y-81985714D02*
X172508095Y-82033333D01*
X172936666Y-82604761D02*
X172841428Y-82652380D01*
X172841428Y-82652380D02*
X172603333Y-82652380D01*
X172603333Y-82652380D02*
X172508095Y-82604761D01*
X172508095Y-82604761D02*
X172460476Y-82509523D01*
X172460476Y-82509523D02*
X172460476Y-82414285D01*
X172460476Y-82414285D02*
X172508095Y-82319047D01*
X172508095Y-82319047D02*
X172603333Y-82271428D01*
X172603333Y-82271428D02*
X172841428Y-82271428D01*
X172841428Y-82271428D02*
X172936666Y-82223809D01*
X173270000Y-81985714D02*
X173650952Y-81985714D01*
X173412857Y-81652380D02*
X173412857Y-82509523D01*
X173412857Y-82509523D02*
X173460476Y-82604761D01*
X173460476Y-82604761D02*
X173555714Y-82652380D01*
X173555714Y-82652380D02*
X173650952Y-82652380D01*
X173841429Y-81985714D02*
X174222381Y-81985714D01*
X173984286Y-81652380D02*
X173984286Y-82509523D01*
X173984286Y-82509523D02*
X174031905Y-82604761D01*
X174031905Y-82604761D02*
X174127143Y-82652380D01*
X174127143Y-82652380D02*
X174222381Y-82652380D01*
X117798095Y-80832380D02*
X117798095Y-79832380D01*
X118226666Y-79927619D02*
X118274285Y-79880000D01*
X118274285Y-79880000D02*
X118369523Y-79832380D01*
X118369523Y-79832380D02*
X118607618Y-79832380D01*
X118607618Y-79832380D02*
X118702856Y-79880000D01*
X118702856Y-79880000D02*
X118750475Y-79927619D01*
X118750475Y-79927619D02*
X118798094Y-80022857D01*
X118798094Y-80022857D02*
X118798094Y-80118095D01*
X118798094Y-80118095D02*
X118750475Y-80260952D01*
X118750475Y-80260952D02*
X118179047Y-80832380D01*
X118179047Y-80832380D02*
X118798094Y-80832380D01*
X119798094Y-80737142D02*
X119750475Y-80784761D01*
X119750475Y-80784761D02*
X119607618Y-80832380D01*
X119607618Y-80832380D02*
X119512380Y-80832380D01*
X119512380Y-80832380D02*
X119369523Y-80784761D01*
X119369523Y-80784761D02*
X119274285Y-80689523D01*
X119274285Y-80689523D02*
X119226666Y-80594285D01*
X119226666Y-80594285D02*
X119179047Y-80403809D01*
X119179047Y-80403809D02*
X119179047Y-80260952D01*
X119179047Y-80260952D02*
X119226666Y-80070476D01*
X119226666Y-80070476D02*
X119274285Y-79975238D01*
X119274285Y-79975238D02*
X119369523Y-79880000D01*
X119369523Y-79880000D02*
X119512380Y-79832380D01*
X119512380Y-79832380D02*
X119607618Y-79832380D01*
X119607618Y-79832380D02*
X119750475Y-79880000D01*
X119750475Y-79880000D02*
X119798094Y-79927619D01*
D12*
X154897142Y-96322142D02*
X156040000Y-96322142D01*
X135087142Y-96492142D02*
X136230000Y-96492142D01*
X135658571Y-97063571D02*
X135658571Y-95920714D01*
D11*
X169710000Y-91390000D02*
X121610000Y-91390000D01*
X121610000Y-75750000D02*
X169710000Y-75750000D01*
X121610000Y-91390000D02*
X121610000Y-75750000D01*
X169710000Y-75750000D02*
X169710000Y-91390000D01*
D13*
X128260000Y-69602500D02*
X128260000Y-67847500D01*
X128260000Y-65900000D02*
X128260000Y-64500000D01*
X119060000Y-69602500D02*
X119060000Y-67847500D01*
X119060000Y-65900000D02*
X119060000Y-64500000D01*
X133902500Y-86789724D02*
X133902500Y-86280276D01*
X132857500Y-86789724D02*
X132857500Y-86280276D01*
X137810000Y-92250000D02*
X137810000Y-100550000D01*
X137810000Y-100550000D02*
X150660000Y-100550000D01*
X150660000Y-92250000D02*
X137810000Y-92250000D01*
X150660000Y-100550000D02*
X153510000Y-98000000D01*
X153510000Y-94850000D02*
X150660000Y-92250000D01*
X153510000Y-98000000D02*
X153510000Y-94850000D01*
X135896233Y-77545000D02*
X136188767Y-77545000D01*
X135896233Y-76525000D02*
X136188767Y-76525000D01*
X148157500Y-85297776D02*
X148157500Y-85807224D01*
X149202500Y-85297776D02*
X149202500Y-85807224D01*
X146195000Y-83362500D02*
X146195000Y-81162500D01*
X146195000Y-83362500D02*
X146195000Y-85562500D01*
X142975000Y-83362500D02*
X142975000Y-81162500D01*
X142975000Y-83362500D02*
X142975000Y-86962500D01*
X141510000Y-81011233D02*
X141510000Y-81303767D01*
X142530000Y-81011233D02*
X142530000Y-81303767D01*
X166040000Y-83570000D02*
X166040000Y-91250000D01*
X163380000Y-91250000D02*
X166040000Y-91250000D01*
X163380000Y-83570000D02*
X166040000Y-83570000D01*
X163380000Y-83570000D02*
X163380000Y-91250000D01*
X163380000Y-82300000D02*
X163380000Y-80970000D01*
X163380000Y-80970000D02*
X164710000Y-80970000D01*
X133187064Y-88460000D02*
X131732936Y-88460000D01*
X133187064Y-90280000D02*
X131732936Y-90280000D01*
X132613767Y-83572500D02*
X132321233Y-83572500D01*
X132613767Y-84592500D02*
X132321233Y-84592500D01*
X128795000Y-84858733D02*
X128795000Y-85151267D01*
X129815000Y-84858733D02*
X129815000Y-85151267D01*
X128645000Y-79582500D02*
X128645000Y-81532500D01*
X128645000Y-79582500D02*
X128645000Y-77632500D01*
X133765000Y-79582500D02*
X133765000Y-81532500D01*
X133765000Y-79582500D02*
X133765000Y-76132500D01*
X136047500Y-78005000D02*
X135247500Y-78005000D01*
X136047500Y-78005000D02*
X136847500Y-78005000D01*
X136047500Y-81125000D02*
X135247500Y-81125000D01*
X136047500Y-81125000D02*
X137847500Y-81125000D01*
X138410000Y-81006233D02*
X138410000Y-81298767D01*
X139430000Y-81006233D02*
X139430000Y-81298767D01*
X133726667Y-65900000D02*
X133726667Y-64500000D01*
X133726667Y-69602500D02*
X133726667Y-67847500D01*
X142926667Y-65900000D02*
X142926667Y-64500000D01*
X142926667Y-69602500D02*
X142926667Y-67847500D01*
X116100000Y-92340000D02*
X117350000Y-92340000D01*
X116400000Y-92040000D02*
X121120000Y-92040000D01*
X117710000Y-92040000D02*
X117710000Y-91430000D01*
X119010000Y-92040000D02*
X119010000Y-91430000D01*
X121120000Y-92040000D02*
X121120000Y-81920000D01*
X117010000Y-91430000D02*
X120510000Y-91430000D01*
X120510000Y-91430000D02*
X120510000Y-82530000D01*
X116100000Y-91090000D02*
X116100000Y-92340000D01*
X116200000Y-90580000D02*
X116400000Y-90580000D01*
X116200000Y-90280000D02*
X116200000Y-90580000D01*
X116300000Y-90280000D02*
X116300000Y-90580000D01*
X116400000Y-90280000D02*
X116200000Y-90280000D01*
X116400000Y-89480000D02*
X117010000Y-89480000D01*
X117010000Y-89480000D02*
X117010000Y-91430000D01*
X120010000Y-89080000D02*
X120010000Y-88880000D01*
X120510000Y-89080000D02*
X120010000Y-89080000D01*
X120510000Y-88980000D02*
X120010000Y-88980000D01*
X120010000Y-88880000D02*
X120510000Y-88880000D01*
X120010000Y-87080000D02*
X120010000Y-86880000D01*
X120510000Y-87080000D02*
X120010000Y-87080000D01*
X120510000Y-86980000D02*
X120010000Y-86980000D01*
X120010000Y-86880000D02*
X120510000Y-86880000D01*
X120010000Y-85080000D02*
X120010000Y-84880000D01*
X120510000Y-85080000D02*
X120010000Y-85080000D01*
X120510000Y-84980000D02*
X120010000Y-84980000D01*
X120010000Y-84880000D02*
X120510000Y-84880000D01*
X117010000Y-84480000D02*
X116400000Y-84480000D01*
X117010000Y-82530000D02*
X117010000Y-84480000D01*
X120510000Y-82530000D02*
X117010000Y-82530000D01*
X116400000Y-81920000D02*
X116400000Y-92040000D01*
X117710000Y-81920000D02*
X117710000Y-82530000D01*
X119010000Y-81920000D02*
X119010000Y-82530000D01*
X121120000Y-81920000D02*
X116400000Y-81920000D01*
X146617500Y-80902776D02*
X146617500Y-81412224D01*
X147662500Y-80902776D02*
X147662500Y-81412224D01*
X175230000Y-83620000D02*
X173980000Y-83620000D01*
X174930000Y-83920000D02*
X170210000Y-83920000D01*
X173620000Y-83920000D02*
X173620000Y-84530000D01*
X172320000Y-83920000D02*
X172320000Y-84530000D01*
X170210000Y-83920000D02*
X170210000Y-90040000D01*
X174320000Y-84530000D02*
X170820000Y-84530000D01*
X170820000Y-84530000D02*
X170820000Y-89430000D01*
X175230000Y-84870000D02*
X175230000Y-83620000D01*
X175130000Y-85380000D02*
X174930000Y-85380000D01*
X175130000Y-85680000D02*
X175130000Y-85380000D01*
X175030000Y-85680000D02*
X175030000Y-85380000D01*
X174930000Y-85680000D02*
X175130000Y-85680000D01*
X174930000Y-86480000D02*
X174320000Y-86480000D01*
X174320000Y-86480000D02*
X174320000Y-84530000D01*
X171320000Y-86880000D02*
X171320000Y-87080000D01*
X170820000Y-86880000D02*
X171320000Y-86880000D01*
X170820000Y-86980000D02*
X171320000Y-86980000D01*
X171320000Y-87080000D02*
X170820000Y-87080000D01*
X174320000Y-87480000D02*
X174930000Y-87480000D01*
X174320000Y-89430000D02*
X174320000Y-87480000D01*
X170820000Y-89430000D02*
X174320000Y-89430000D01*
X174930000Y-90040000D02*
X174930000Y-83920000D01*
X173620000Y-90040000D02*
X173620000Y-89430000D01*
X172320000Y-90040000D02*
X172320000Y-89430000D01*
X170210000Y-90040000D02*
X174930000Y-90040000D01*
X139947500Y-80902776D02*
X139947500Y-81412224D01*
X140992500Y-80902776D02*
X140992500Y-81412224D01*
X132072500Y-86789724D02*
X132072500Y-86280276D01*
X131027500Y-86789724D02*
X131027500Y-86280276D01*
X144737224Y-87507500D02*
X144227776Y-87507500D01*
X144737224Y-88552500D02*
X144227776Y-88552500D01*
X148157500Y-80905276D02*
X148157500Y-81414724D01*
X149202500Y-80905276D02*
X149202500Y-81414724D01*
X134810000Y-82846233D02*
X134810000Y-83138767D01*
X135830000Y-82846233D02*
X135830000Y-83138767D01*
X139497500Y-85797500D02*
X139497500Y-86597500D01*
X139497500Y-85797500D02*
X139497500Y-84997500D01*
X142617500Y-85797500D02*
X142617500Y-86597500D01*
X142617500Y-85797500D02*
X142617500Y-83997500D01*
X146617500Y-85302776D02*
X146617500Y-85812224D01*
X147662500Y-85302776D02*
X147662500Y-85812224D01*
X148393333Y-65900000D02*
X148393333Y-64500000D01*
X148393333Y-69602500D02*
X148393333Y-67847500D01*
X157593333Y-65900000D02*
X157593333Y-64500000D01*
X157593333Y-69602500D02*
X157593333Y-67847500D01*
X138100000Y-91190000D02*
X138100000Y-91250000D01*
X135440000Y-91250000D02*
X138100000Y-91250000D01*
X135440000Y-91190000D02*
X138100000Y-91190000D01*
X135440000Y-91190000D02*
X135440000Y-91250000D01*
X135440000Y-89920000D02*
X135440000Y-88590000D01*
X135440000Y-88590000D02*
X136770000Y-88590000D01*
X163060000Y-65900000D02*
X163060000Y-64500000D01*
X163060000Y-69602500D02*
X163060000Y-67847500D01*
X172260000Y-65900000D02*
X172260000Y-64500000D01*
X172260000Y-69602500D02*
X172260000Y-67847500D01*
X127940000Y-78490000D02*
X127940000Y-86170000D01*
X125280000Y-86170000D02*
X127940000Y-86170000D01*
X125280000Y-78490000D02*
X127940000Y-78490000D01*
X125280000Y-78490000D02*
X125280000Y-86170000D01*
X125280000Y-77220000D02*
X125280000Y-75890000D01*
X125280000Y-75890000D02*
X126610000Y-75890000D01*
%LPC*%
D14*
X172659999Y-97979999D03*
X118659999Y-97979999D03*
X172659999Y-75979999D03*
X118659999Y-75979999D03*
D15*
X124159999Y-70532499D03*
D16*
X122139999Y-70532499D03*
D17*
X120909999Y-70532499D03*
D15*
X123159999Y-70532499D03*
D16*
X125179999Y-70532499D03*
D17*
X126409999Y-70532499D03*
D18*
X128784999Y-70477499D03*
D19*
X128784999Y-66897499D03*
D18*
X118534999Y-70477499D03*
D19*
X118534999Y-66897499D03*
D20*
X133380000Y-85622500D03*
X133380000Y-87447500D03*
D21*
X142060000Y-96400000D03*
D22*
X149260000Y-96400000D03*
D23*
X136905000Y-77035000D03*
X135180000Y-77035000D03*
D24*
X148680000Y-86465000D03*
X148680000Y-84640000D03*
D25*
X143610000Y-80500000D03*
X144260000Y-80500000D03*
X144910000Y-80500000D03*
X145560000Y-80500000D03*
X145560000Y-86225000D03*
X144910000Y-86225000D03*
X144260000Y-86225000D03*
X143610000Y-86225000D03*
D26*
X142020000Y-82020000D03*
X142020000Y-80295000D03*
D27*
X164709999Y-89919999D03*
X164709999Y-87379999D03*
X164709999Y-84839999D03*
D28*
X164709999Y-82299999D03*
D29*
X130910000Y-89370000D03*
X134010000Y-89370000D03*
D30*
X131605000Y-84082500D03*
X133330000Y-84082500D03*
D26*
X129305000Y-85867500D03*
X129305000Y-84142500D03*
D31*
X133110000Y-82057500D03*
X131840000Y-82057500D03*
X130570000Y-82057500D03*
X129300000Y-82057500D03*
X129300000Y-77107500D03*
X130570000Y-77107500D03*
X131840000Y-77107500D03*
X133110000Y-77107500D03*
D32*
X134910000Y-80515000D03*
X134910000Y-78615000D03*
X137185000Y-78615000D03*
X137185000Y-79565000D03*
X137185000Y-80515000D03*
D26*
X138920000Y-82015000D03*
X138920000Y-80290000D03*
D19*
X133201666Y-66897499D03*
D18*
X133201666Y-70477499D03*
D19*
X143451666Y-66897499D03*
D18*
X143451666Y-70477499D03*
D17*
X141076666Y-70532499D03*
D16*
X139846666Y-70532499D03*
D15*
X137826666Y-70532499D03*
D17*
X135576666Y-70532499D03*
D16*
X136806666Y-70532499D03*
D15*
X138826666Y-70532499D03*
D33*
X118210000Y-89980000D03*
D34*
X118209999Y-87979999D03*
X118209999Y-85979999D03*
X118209999Y-83979999D03*
D24*
X147140000Y-82070000D03*
X147140000Y-80245000D03*
D35*
X173120000Y-85980000D03*
D34*
X173119999Y-87979999D03*
D24*
X140470000Y-82070000D03*
X140470000Y-80245000D03*
D20*
X131550000Y-85622500D03*
X131550000Y-87447500D03*
D36*
X143570000Y-88030000D03*
X145395000Y-88030000D03*
D24*
X148680000Y-82072500D03*
X148680000Y-80247500D03*
D26*
X135320000Y-83855000D03*
X135320000Y-82130000D03*
D37*
X141057500Y-86935000D03*
X140107500Y-84660000D03*
X142007500Y-84660000D03*
D24*
X147140000Y-86470000D03*
X147140000Y-84645000D03*
D19*
X147868332Y-66897499D03*
D18*
X147868332Y-70477499D03*
D19*
X158118332Y-66897499D03*
D18*
X158118332Y-70477499D03*
D17*
X155743332Y-70532499D03*
D16*
X154513332Y-70532499D03*
D15*
X152493332Y-70532499D03*
D17*
X150243332Y-70532499D03*
D16*
X151473332Y-70532499D03*
D15*
X153493332Y-70532499D03*
D28*
X136769999Y-89919999D03*
D19*
X162534999Y-66897499D03*
D18*
X162534999Y-70477499D03*
D19*
X172784999Y-66897499D03*
D18*
X172784999Y-70477499D03*
D17*
X170409999Y-70532499D03*
D16*
X169179999Y-70532499D03*
D15*
X167159999Y-70532499D03*
D17*
X164909999Y-70532499D03*
D16*
X166139999Y-70532499D03*
D15*
X168159999Y-70532499D03*
D27*
X126609999Y-84839999D03*
X126609999Y-82299999D03*
X126609999Y-79759999D03*
D28*
X126609999Y-77219999D03*
M02*
