M48
; DRILL file {KiCad 7.0.0} date Thu 02 Mar 2023 03:59:10 PM PST
; FORMAT={-:-/ absolute / metric / decimal}
; #@! TF.CreationDate,2023-03-02T15:59:10-08:00
; #@! TF.GenerationSoftware,Kicad,Pcbnew,7.0.0
; #@! TF.FileFunction,Plated,1,2,PTH
FMAT,2
METRIC
; #@! TA.AperFunction,Plated,PTH,ViaDrill
T1C0.300
; #@! TA.AperFunction,Plated,PTH,ComponentDrill
T2C0.750
; #@! TA.AperFunction,Plated,PTH,ComponentDrill
T3C1.000
; #@! TA.AperFunction,Plated,PTH,ComponentDrill
T4C3.200
; #@! TA.AperFunction,Plated,PTH,ComponentDrill
T5C4.500
%
G90
G05
T1
X119.98Y-66.96
X120.0Y-70.46
X120.06Y-86.99
X123.69Y-68.51
X124.88Y-93.89
X124.94Y-98.52
X124.96Y-89.04
X125.06Y-81.09
X127.36Y-70.34
X127.42Y-66.93
X128.94Y-87.26
X130.17Y-86.48
X130.58Y-80.52
X130.71Y-93.73
X130.8Y-98.56
X130.91Y-70.3
X130.92Y-67.0
X131.84Y-78.64
X133.11Y-78.64
X133.11Y-80.4
X134.65Y-70.24
X134.66Y-66.92
X134.85Y-86.72
X135.28Y-85.02
X136.08Y-79.57
X138.02Y-77.04
X138.07Y-83.11
X138.42Y-78.62
X138.56Y-68.12
X139.237Y-84.657
X139.37Y-87.02
X139.51Y-83.35
X140.87Y-90.51
X141.23Y-76.69
X141.99Y-66.93
X142.0Y-70.31
X142.02Y-83.12
X142.39Y-86.9
X143.67Y-82.54
X145.64Y-70.28
X145.66Y-66.99
X145.72Y-90.6
X146.2Y-86.43
X146.22Y-76.69
X149.29Y-70.29
X149.32Y-66.93
X150.68Y-76.8
X150.75Y-83.93
X150.77Y-81.21
X150.8Y-87.07
X150.89Y-90.43
X153.07Y-68.3
X154.88Y-76.99
X155.1Y-81.06
X155.14Y-87.07
X155.17Y-83.96
X155.19Y-90.52
X156.64Y-66.88
X156.66Y-70.3
X159.49Y-91.69
X159.51Y-96.51
X160.37Y-66.97
X160.37Y-70.23
X163.96Y-77.5
X163.98Y-66.92
X164.0Y-70.31
X165.34Y-96.35
X165.35Y-92.59
X167.51Y-83.15
X167.58Y-77.52
X167.84Y-68.48
X167.89Y-88.0
X171.33Y-66.9
X171.35Y-70.4
X172.36Y-81.23
T2
X118.21Y-83.98
X118.21Y-85.98
X118.21Y-87.98
X118.21Y-89.98
X173.12Y-85.98
X173.12Y-87.98
T3
X126.61Y-77.22
X126.61Y-79.76
X126.61Y-82.3
X126.61Y-84.84
X136.77Y-89.92
X164.71Y-82.3
X164.71Y-84.84
X164.71Y-87.38
X164.71Y-89.92
T4
X118.66Y-75.98
X118.66Y-97.98
X172.66Y-75.98
X172.66Y-97.98
T5
X142.06Y-96.4
X149.26Y-96.4
T0
M30
